<?xml version="1.0" encoding="iso-8859-1"?>
<!-- Generator: Adobe Illustrator 19.0.0, SVG Export Plug-In . SVG Version: 6.00 Build 0)  -->
<svg version="1.1" id="Capa_1" xmlns="http://www.w3.org/2000/svg" xmlns:xlink="http://www.w3.org/1999/xlink" x="0px" y="0px"
	 viewBox="0 0 512 512" style="enable-background:new 0 0 512 512;" xml:space="preserve">
<g>
	<polygon style="fill:#FF9911;" points="7.5,208.159 90.333,160.335 173.167,208.159 173.167,303.807 90.333,351.63 7.5,303.807 	
		"/>
	<polygon style="fill:#FF9911;" points="173.167,208.159 256,160.335 338.833,208.159 338.833,303.807 256,351.63 173.167,303.807 	
		"/>
	<polygon style="fill:#FF9911;" points="338.833,208.159 421.667,160.335 504.5,208.159 504.5,303.807 421.667,351.63 
		338.833,303.807 	"/>
	<polygon style="fill:#FF9911;" points="90.333,64.7 173.167,16.876 256,64.7 256,160.347 173.167,208.171 90.333,160.347 	"/>
	<polygon style="fill:#FF9911;" points="256,64.7 338.833,16.876 421.667,64.7 421.667,160.347 338.833,208.171 256,160.347 	"/>
	<polygon style="fill:#FF9911;" points="90.333,351.653 173.167,303.829 256,351.653 256,447.3 173.167,495.124 90.333,447.3 	"/>
	<polygon style="fill:#FF9911;" points="256,351.653 338.833,303.829 421.667,351.653 421.667,447.3 338.833,495.124 256,447.3 	"/>
</g>
<g>
	<polygon style="fill:#E57F0E;" points="118.987,140.422 118.987,48.156 90.333,64.7 90.333,160.347 173.167,208.171 
		203.922,190.415 	"/>
	<polygon style="fill:#E57F0E;" points="286.273,140.422 286.273,48.156 257.62,64.7 257.62,160.347 340.453,208.171 
		371.208,190.415 	"/>
	<polygon style="fill:#E57F0E;" points="118.987,430.502 118.987,338.236 90.333,354.779 90.333,450.427 173.167,498.251 
		203.922,480.494 	"/>
	<polygon style="fill:#E57F0E;" points="286.273,430.502 286.273,338.236 257.62,354.779 257.62,450.427 340.453,498.251 
		371.208,480.494 	"/>
	<polygon style="fill:#E57F0E;" points="35.344,283.881 35.344,191.616 6.69,208.159 6.69,303.807 89.524,351.63 120.279,333.874 	
		"/>
	<polygon style="fill:#E57F0E;" points="202.63,283.881 202.63,191.616 173.977,208.159 173.977,303.807 256.81,351.63 
		287.565,333.874 	"/>
	<polygon style="fill:#E57F0E;" points="367.487,283.881 367.487,191.616 338.833,208.159 338.833,303.807 421.667,351.63 
		452.422,333.874 	"/>
</g>
<g>
	<polygon style="fill:#FFFFFF;" points="156.248,244.681 141.248,244.681 141.248,227.508 105.656,206.959 113.156,193.969 
		156.248,218.848 	"/>
	<rect x="141.25" y="251.8" style="fill:#FFFFFF;" width="15" height="15.913"/>
	<polygon style="fill:#FFFFFF;" points="321.914,244.681 306.914,244.681 306.914,227.508 271.323,206.959 278.823,193.969 
		321.914,218.848 	"/>
	<rect x="306.91" y="251.8" style="fill:#FFFFFF;" width="15" height="15.913"/>
	<polygon style="fill:#FFFFFF;" points="487.581,244.681 472.581,244.681 472.581,227.508 436.989,206.959 444.489,193.969 
		487.581,218.848 	"/>
	<rect x="472.58" y="251.8" style="fill:#FFFFFF;" width="15" height="15.913"/>
	<polygon style="fill:#FFFFFF;" points="239.081,101.221 224.081,101.221 224.081,84.049 188.489,63.5 195.989,50.51 
		239.081,75.389 	"/>
	<rect x="224.08" y="108.34" style="fill:#FFFFFF;" width="15" height="15.913"/>
	<polygon style="fill:#FFFFFF;" points="404.748,101.221 389.748,101.221 389.748,84.049 354.156,63.5 361.656,50.51 
		404.748,75.389 	"/>
	<rect x="389.75" y="108.34" style="fill:#FFFFFF;" width="15" height="15.913"/>
	<polygon style="fill:#FFFFFF;" points="239.081,388.175 224.081,388.175 224.081,371.002 188.489,350.453 195.989,337.463 
		239.081,362.342 	"/>
	<rect x="224.08" y="395.29" style="fill:#FFFFFF;" width="15" height="15.913"/>
</g>
<path d="M429.167,156.005V60.37L338.833,8.215L256,56.039L173.167,8.215L82.833,60.37v95.635L0,203.829v104.308l82.833,47.824v95.67
	l90.333,52.154L256,455.961l82.833,47.824l90.333-52.154v-95.67L512,308.137V203.829L429.167,156.005z M263.5,69.03l75.333-43.494
	l75.333,43.494v86.975l-75.333,43.494L263.5,156.005V69.03z M97.833,69.03l75.333-43.494L248.5,69.03v86.975l-75.333,43.494
	l-75.333-43.494L97.833,69.03L97.833,69.03z M15,299.477v-86.988l75.323-43.488l75.344,43.5v86.976L90.333,342.97L15,299.477z
	 M248.5,442.97l-75.333,43.494L97.833,442.97v-86.987l75.333-43.494l75.333,43.494v86.987H248.5z M180.667,299.477v-86.976
	L256,169.007l75.333,43.494v86.976L256,342.97L180.667,299.477z M414.167,442.97l-75.333,43.494L263.5,442.97v-86.987l75.333-43.494
	l75.333,43.494L414.167,442.97L414.167,442.97z M497,299.477l-75.333,43.494l-75.333-43.494v-86.976l75.344-43.5L497,212.489
	V299.477z"/>
<g>
	<polygon style="fill:#FFFFFF;" points="404.748,388.175 389.748,388.175 389.748,371.002 354.156,350.453 361.656,337.463 
		404.748,362.342 	"/>
	<rect x="389.75" y="395.29" style="fill:#FFFFFF;" width="15" height="15.913"/>
</g>
<g>
</g>
<g>
</g>
<g>
</g>
<g>
</g>
<g>
</g>
<g>
</g>
<g>
</g>
<g>
</g>
<g>
</g>
<g>
</g>
<g>
</g>
<g>
</g>
<g>
</g>
<g>
</g>
<g>
</g>
</svg>
