<?xml version="1.0" encoding="iso-8859-1"?>
<!-- Generator: Adobe Illustrator 19.0.0, SVG Export Plug-In . SVG Version: 6.00 Build 0)  -->
<svg version="1.1" id="Layer_1" xmlns="http://www.w3.org/2000/svg" xmlns:xlink="http://www.w3.org/1999/xlink" x="0px" y="0px"
	 viewBox="0 0 512.001 512.001" style="enable-background:new 0 0 512.001 512.001;" xml:space="preserve">
<g>
	<path style="fill:#1E3D2E;" d="M396.869,81.7l-52.67,52.67l-19.652-19.652c-14.544-14.545-14.544-38.118,0-52.662
		c14.544-14.545,38.126-14.552,52.67-0.008L396.869,81.7z"/>
	<path style="fill:#1E3D2E;" d="M449.954,134.786c14.544,14.544,14.537,38.126-0.008,52.67c-14.544,14.544-38.117,14.544-52.661,0
		l-19.653-19.652l52.67-52.67L449.954,134.786z"/>
</g>
<rect x="331.411" y="108.812" transform="matrix(-0.7071 0.7071 -0.7071 -0.7071 741.5873 -42.2686)" style="fill:#38A287;" width="96.274" height="47.282"/>
<path style="fill:#FFE670;" d="M376.716,260.516l-57.092,57.092l-93.43-31.8l-31.8-93.43l57.092-57.092
	c25.853-25.853,67.776-25.853,93.629,0l31.601,31.6C402.569,192.739,402.569,234.663,376.716,260.516z"/>
<polygon style="fill:#1E3D2E;" points="319.624,317.608 271.223,366.01 185.497,326.505 145.992,240.78 194.394,192.378 "/>
<polygon style="fill:#FFE670;" points="271.223,366.01 222.828,414.404 137.102,374.9 97.598,289.174 145.992,240.78 "/>
<path style="fill:#1E3D2E;" d="M222.828,414.404l-23.688,23.689c-9.221,9.221-19.29,15.577-29.644,19.783l-73.092-42.277
	l-42.277-73.092c4.206-10.354,10.561-20.422,19.783-29.643l23.688-23.689L222.828,414.404z"/>
<path style="fill:#FFE670;" d="M54.127,342.506l115.369,115.369c-49.774,20.238-106.087-9.283-106.087-9.283
	S33.889,392.279,54.127,342.506z"/>
<path style="fill:#CED4D2;" d="M295.689,179.752l-150.02,50.628c-7.241,2.435-14.86,3.582-22.957,3.143
	c-34.296-1.864-60.604-31.177-58.74-65.473l111.881-48.586L295.689,179.752z"/>
<path style="fill:#EBEEED;" d="M295.689,179.752L63.971,168.049c0-0.031,0-0.046,0.008-0.069c-2.257-0.763-4.498-1.618-6.74-2.596
	C15.746,147.158-3.127,98.748,15.092,57.249C33.318,15.742,81.736-3.124,123.235,15.095c9.614,4.222,18.227,10.169,25.237,17.18
	L295.689,179.752z"/>
<path style="fill:#CED4D2;" d="M332.251,216.313l-50.628,150.02c-2.435,7.241-3.582,14.86-3.143,22.957
	c1.864,34.296,31.177,60.604,65.473,58.74l48.587-111.881L332.251,216.313z"/>
<path style="fill:#EBEEED;" d="M332.251,216.313l11.702,231.718c0.031,0,0.046,0,0.069-0.008c0.763,2.257,1.618,4.498,2.596,6.74
	c18.227,41.492,66.637,60.366,108.136,42.147c41.507-18.227,60.373-66.644,42.154-108.144c-4.222-9.614-10.169-18.227-17.18-25.237
	L332.251,216.313z"/>
<path d="M240.231,385.441l-17.408,17.407l-113.67-113.671l17.407-17.407c3.191-3.191,3.191-8.365,0-11.555
	c-3.191-3.191-8.365-3.191-11.555,0l-46.872,46.871c-9.214,9.214-16.282,19.782-21.168,31.491c-0.295,0.538-0.528,1.101-0.694,1.681
	c-7.185,18.158-9.186,38.996-5.782,61.769c3.01,20.138,9.449,36.679,13.076,44.856l-19.871,19.87c-3.191,3.191-3.191,8.365,0,11.556
	c1.595,1.595,3.687,2.394,5.777,2.394c2.091,0,4.182-0.797,5.777-2.394l19.871-19.871c8.177,3.627,24.718,10.066,44.855,13.076
	c7.221,1.08,14.241,1.616,21.05,1.616c14.662-0.001,28.314-2.489,40.715-7.396c0.626-0.179,1.231-0.438,1.809-0.769
	c11.656-4.883,22.189-11.916,31.367-21.094l46.871-46.871c3.191-3.191,3.191-8.365,0-11.556
	C248.596,382.25,243.422,382.25,240.231,385.441z M112.841,455.416c-20.558-3.005-37.363-10.165-43.318-12.938
	c-2.776-5.963-9.934-22.764-12.937-43.318c-2.208-15.111-1.798-28.945,1.194-41.443l96.506,96.506
	C141.788,457.215,127.952,457.626,112.841,455.416z M193.36,432.312c-6.615,6.615-13.976,11.888-22.045,15.83L63.86,340.687
	c3.942-8.07,9.215-15.43,15.829-22.045l17.908-17.908l113.671,113.672L193.36,432.312z"/>
<path d="M169.724,252.948c-3.191-3.191-8.365-3.191-11.555,0c-3.191,3.191-3.191,8.365,0,11.555l89.33,89.33
	c1.595,1.595,3.687,2.394,5.777,2.394c2.091,0,4.182-0.797,5.777-2.394c3.191-3.191,3.191-8.365,0-11.555L169.724,252.948z"/>
<path d="M277.566,283.717c2.091,0,4.182-0.797,5.777-2.394c3.191-3.191,3.191-8.365,0-11.556l-41.11-41.11
	c-3.191-3.191-8.365-3.191-11.556,0c-3.191,3.191-3.191,8.365,0,11.556l41.11,41.11
	C273.384,282.919,275.475,283.717,277.566,283.717z"/>
<path d="M504.388,385.486L504.388,385.486c-4.533-10.323-11.06-19.912-18.877-27.732l-97.563-97.563
	c10.574-13.151,16.329-29.375,16.329-46.491c0-4.051-0.339-8.049-0.97-11.971c6.373,3.182,13.341,4.786,20.313,4.786
	c11.629,0,23.258-4.426,32.111-13.279c17.706-17.706,17.706-46.515,0-64.221l-13.873-13.873l23.481-23.481
	c3.191-3.191,3.191-8.365,0-11.555c-3.191-3.191-8.365-3.191-11.555,0l-23.481,23.481L408.418,81.7l23.481-23.481
	c3.191-3.191,3.191-8.365,0-11.555c-3.19-3.191-8.364-3.191-11.556,0l-23.481,23.481l-13.873-13.873
	c-17.705-17.706-46.514-17.706-64.221,0c-14.161,14.161-16.984,35.418-8.493,52.424c-3.923-0.632-7.92-0.97-11.971-0.97
	c-17.115,0-33.342,5.756-46.491,16.329l-97.564-97.565c-7.819-7.815-17.408-14.342-27.73-18.875l0,0
	c-45.56-20.006-98.9,0.784-118.905,46.343c-20.005,45.559,0.785,98.899,46.343,118.902c0.59,0.259,1.185,0.513,1.786,0.76
	c1.107,36.111,29.806,66.068,66.53,68.057c1.258,0.069,2.516,0.102,3.771,0.102c7.529,0,14.987-1.226,22.218-3.652l148.952-49.897
	c2.801-0.386,5.201-2.215,6.343-4.808c0.254-0.54,0.442-1.118,0.574-1.717c0.019-0.087,0.036-0.174,0.052-0.263
	c0.052-0.285,0.092-0.575,0.114-0.87c0.003-0.052,0.013-0.105,0.015-0.157c0.001-0.016,0.003-0.031,0.004-0.046
	c0.017-0.33,0.008-0.656-0.013-0.977c-0.005-0.076-0.016-0.151-0.023-0.228c-0.027-0.284-0.069-0.564-0.124-0.84
	c-0.014-0.071-0.027-0.142-0.044-0.214c-0.078-0.341-0.174-0.675-0.294-1c-0.008-0.022-0.018-0.041-0.026-0.062
	c-0.114-0.301-0.249-0.59-0.397-0.873c-0.04-0.077-0.081-0.154-0.123-0.23c-0.169-0.3-0.351-0.593-0.556-0.868
	c-0.009-0.012-0.02-0.023-0.027-0.034c-0.205-0.272-0.43-0.526-0.667-0.771c-0.032-0.033-0.056-0.069-0.087-0.101l-38.482-38.482
	c9.998-7.54,22.108-11.628,34.852-11.628c15.502,0,30.076,6.037,41.037,16.998l31.598,31.598
	c10.961,10.961,16.998,25.535,16.998,41.037c0,12.742-4.087,24.854-11.628,34.852l-38.482-38.482
	c-0.029-0.029-0.063-0.051-0.092-0.08c-0.508-0.492-1.076-0.918-1.695-1.266c-0.066-0.037-0.133-0.073-0.2-0.109
	c-0.297-0.156-0.604-0.299-0.922-0.418c-0.007-0.002-0.013-0.005-0.02-0.008c-0.33-0.123-0.672-0.221-1.02-0.301
	c-0.061-0.014-0.123-0.025-0.184-0.037c-0.285-0.059-0.575-0.101-0.869-0.13c-0.07-0.007-0.139-0.016-0.21-0.022
	c-0.324-0.022-0.651-0.031-0.984-0.013c-0.014,0-0.028,0.003-0.044,0.004c-0.059,0.003-0.115,0.013-0.174,0.019
	c-0.29,0.023-0.574,0.06-0.854,0.112c-0.094,0.017-0.186,0.036-0.28,0.058c-0.298,0.066-0.592,0.146-0.877,0.244
	c-0.029,0.01-0.061,0.014-0.09,0.025c-0.011,0.003-0.022,0.01-0.033,0.013c-0.135,0.049-0.267,0.108-0.399,0.163
	c-2.752,1.082-4.71,3.558-5.11,6.467l-49.895,148.946c-2.834,8.441-4.029,17.186-3.552,25.993
	c1.992,36.745,31.973,65.457,68.059,66.535c0.246,0.598,0.499,1.191,0.757,1.78c14.838,33.794,48.011,53.956,82.752,53.956
	c12.095,0,24.386-2.447,36.151-7.612C503.603,484.384,524.393,431.044,504.388,385.486z M22.576,60.528
	c16.382-37.308,60.061-54.333,97.37-37.951l0,0c8.484,3.725,16.349,9.075,22.747,15.469l132.659,132.659L65.794,159.958
	c-1.852-0.646-3.586-1.32-5.266-2.059C23.219,141.516,6.194,97.837,22.576,60.528z M143.065,222.635
	c-6.566,2.204-13.077,3.094-19.909,2.726c-14.41-0.781-27.654-7.127-37.291-17.869c-7.792-8.685-12.471-19.402-13.564-30.838
	l180.405,9.253L143.065,222.635z M444.175,140.568c11.334,11.335,11.334,29.776,0,41.111c-11.334,11.334-29.777,11.334-41.111,0
	l-13.873-13.873l41.111-41.111L444.175,140.568z M418.746,115.14l-41.111,41.111l-21.884-21.884l41.111-41.111L418.746,115.14z
	 M330.324,67.827c5.667-5.667,13.112-8.501,20.555-8.501c7.444,0,14.889,2.834,20.556,8.501L385.307,81.7l-41.111,41.111
	l-13.873-13.873C318.989,97.603,318.989,79.161,330.324,67.827z M451.473,489.426c-37.308,16.381-80.988-0.643-97.37-37.952
	c-0.738-1.679-1.412-3.413-2.058-5.265L347,347.84c-0.231-4.507-4.055-7.977-8.578-7.742c-4.507,0.231-7.973,4.072-7.742,8.579
	l4.668,91.025c-11.419-1.088-22.143-5.767-30.838-13.567c-10.742-9.637-17.088-22.881-17.868-37.291
	c-0.37-6.831,0.521-13.343,2.727-19.913l36.727-109.636l2.91,56.741c0.224,4.364,3.833,7.753,8.154,7.753
	c0.141,0,0.283-0.003,0.426-0.011c4.507-0.231,7.973-4.072,7.742-8.579l-4.029-78.549l132.658,132.658
	c6.396,6.398,11.745,14.264,15.47,22.747C505.807,429.364,488.782,473.045,451.473,489.426z"/>
<g>
</g>
<g>
</g>
<g>
</g>
<g>
</g>
<g>
</g>
<g>
</g>
<g>
</g>
<g>
</g>
<g>
</g>
<g>
</g>
<g>
</g>
<g>
</g>
<g>
</g>
<g>
</g>
<g>
</g>
</svg>
