<svg id="Layer_6" enable-background="new 0 0 64 64" height="512" viewBox="0 0 64 64" width="512" xmlns="http://www.w3.org/2000/svg"><path d="m47 9v4h-2-1-1v-4z" fill="#969faa"/><path d="m62 47v15h-16v-15z" fill="#ccd1d9"/><path d="m54 51h-4v4h4 4v-4z" fill="#69d6f4"/><path d="m53 31v4h-16v-4h8z" fill="#b27946"/><path d="m46 47v15h-4v-5c0-.55-.22-1.05-.59-1.41-.36-.37-.86-.59-1.41-.59-1.1 0-2 .9-2 2v5h-4v-5c0-.55-.22-1.05-.59-1.41-.36-.37-.86-.59-1.41-.59-1.1 0-2 .9-2 2v5h-4v-23h20z" fill="#e6e9ed"/><path d="m42 57v5h-4v-5c0-1.1.9-2 2-2 .55 0 1.05.22 1.41.59.37.36.59.86.59 1.41z" fill="#cf9e76"/><path d="m34 57v5h-4v-5c0-1.1.9-2 2-2 .55 0 1.05.22 1.41.59.37.36.59.86.59 1.41z" fill="#cf9e76"/><path d="m38 45h-4-4v4h4 4 4v-4z" fill="#69d6f4"/><g fill="#fcd770"><path d="m18 58v4h-16v-4h2 6 6z"/><path d="m18 13v8h-2-6-6-2v-12h6 4 6z"/><path d="m45 13h4v8h-4z"/></g><path d="m12 2.22v6.78h-4v-7h3z" fill="#969faa"/><path d="m10 13h-4v4h4 4v-4z" fill="#69d6f4"/><path d="m43 44h-14v6h14zm-6 2v2h-2v-2zm-6 0h2v2h-2zm10 2h-2v-2h2z"/><path d="m59 50h-10v6h10zm-8 2h2v2h-2zm6 2h-2v-2h2z"/><path d="m15 12h-10v6h10zm-8 2h2v2h-2zm6 2h-2v-2h2z"/><path d="m47 46v-8h-22v25h38v-17zm-14 15h-2v-4c0-.551.449-1 1-1s1 .449 1 1zm8 0h-2v-4c0-.551.449-1 1-1s1 .449 1 1zm4 0h-2v-4c0-1.654-1.346-3-3-3s-3 1.346-3 3v4h-2v-4c0-1.654-1.346-3-3-3s-3 1.346-3 3v4h-2v-21h18zm16 0h-14v-13h14z"/><path d="m17 22h1 1 25v8h-8v6h18v-6h-8v-8h4v-10h-2v-4h-4.891l-31.895-6.977-4.729-.023-5 7h-.485v14h2v35h-2v6h18v-6h-2zm35 12h-14v-2h14zm-43-3.414-2.586-2.586h2.586zm2-2.586h2.586l-2.586 2.586zm0 19h2.586l-2.586 2.586zm0-2v-2.586l2.586 2.586zm-2 0h-2.586l2.586-2.586zm0 2v2.586l-2.586-2.586zm6 8.586-2.586-2.586h2.586zm0-4.586h-2.586l2.586-2.586zm0-7.414-4-4v-6.172l4-4zm-4-17.586v-2.586l2.586 2.586zm-2 0h-2.586l2.586-2.586zm-4 3.414 4 4v6.172l-4 4zm2.586 21.586h-2.586v-2.586zm-2.586 2h2.586l-2.586 2.586zm4 1.414v2.586h-2.586zm2 0 2.586 2.586h-2.586zm4-29.828-2.586-2.586h2.586zm2-4.586h-14v-10h14zm21.414-6h3.172l-1.586 1.586zm.172 3-2.586 2.586v-5.172zm-7.586-1.414-1.586-1.586h3.172zm3-.172v3.172l-1.586-1.586zm-4.414 1.586-1.586 1.586v-3.172zm-7.586-1.414-1.586-1.586h3.172zm4-1.172v5.172l-2.586-2.586zm-7 1 1.586 1.586-1.586 1.586zm3 3 1.586 1.586h-3.172zm9 0 1.586 1.586h-3.172zm9 0 1.586 1.586h-3.172zm1.414-1.414 2.586-2.586v5.172zm.586-5h-23v-4h-6v-4.539l29 6.344zm6 8h-2v-6h2zm-2-10v2h-2v-2zm-35-6.976v4.976h-2v-5h1.892zm-4 .697v4.279h-3.057zm.586 18.279-2.586 2.586v-2.586zm9.414 39h-14v-2h14z"/><path d="m21 24h2v2h-2z"/><path d="m25 24h13v2h-13z"/><path d="m19 32h4v2h-4z"/><path d="m25 32h7v2h-7z"/><path d="m19 28h6v2h-6z"/><path d="m27 28h7v2h-7z"/></svg>