<svg id="Layer_6" enable-background="new 0 0 64 64" height="512" viewBox="0 0 64 64" width="512" xmlns="http://www.w3.org/2000/svg"><path d="m30 2h12v4h-12z" fill="#aab2bd"/><path d="m46 6v4h-20v-4h4 12z" fill="#ccd1d9"/><path d="m22 10h28v29h-28z" fill="#e6e9ed"/><path d="m38.24 38.95-.24.05h-4v-4h4v2c0 .67.08 1.33.24 1.95z" fill="#69d6f4"/><path d="m46 14v9c-1.42 0-2.78.2-4 .59v-9.59z" fill="#69d6f4"/><path d="m38 14v11.97c-1.26 1.31-2 3.01-2 5.03l-2 2v-19z" fill="#69d6f4"/><path d="m30 14v18h-4v-4-14z" fill="#69d6f4"/><path d="m10 24h12v4h-12z" fill="#ffc729"/><path d="m26 28v4h-20v-4h4 12z" fill="#fcd770"/><path d="m2 32h28v30h-28z" fill="#ffeaa7"/><path d="m6 53h4v9h-4z" fill="#cf9e76"/><path d="m14 53h4v9h-4z" fill="#cf9e76"/><path d="m22 53h4v9h-4z" fill="#cf9e76"/><g fill="#e6e9ed"><path d="m22 44h4v4h-4z"/><path d="m22 36h4v4h-4z"/><path d="m14 36h4v4h-4z"/><path d="m14 44h4v4h-4z"/><path d="m6 44h4v4h-4z"/><path d="m6 36h4v4h-4z"/></g><path d="m62 55.06v6.94h-6v-4-4-7l.04-.28c3.5 1.37 5.96 4.59 5.96 8.34z" fill="#ff826e"/><path d="m58 33v2h-4-16-4v-2l2-2h20z" fill="#cf9e76"/><path d="m56.04 46.72-.04.28v7h-4-4c1.99 0 3.67-1.25 4.16-2.96.1-.33.15-.68.15-1.04l-.07-4c1.35 0 2.64.26 3.8.72z" fill="#e6e9ed"/><path d="m56 58v4h-8v-4h4z" fill="#e6e9ed"/><path d="m50 23.59c3.53 1.1 6 3.72 6 7.41h-20c0-2.02.74-3.72 2-5.03 1.03-1.08 2.4-1.89 4-2.38 1.22-.39 2.58-.59 4-.59s2.78.2 4 .59z" fill="#cf9e76"/><path d="m51.06 43.19c-1.38 1.13-3.14 1.81-5.06 1.81s-3.68-.68-5.06-1.81c-1.31-1.06-2.28-2.54-2.7-4.24-.16-.62-.24-1.28-.24-1.95v-2h16v2c0 2.5-1.15 4.73-2.94 6.19z" fill="#f0d0b4"/><path d="m52 51 .16.04c-.49 1.71-2.17 2.96-4.16 2.96v4 4h-4v-4-4c-1.99 0-3.67-1.25-4.16-2.96l.16-.04 6-1z" fill="#ff826e"/><path d="m52 54h-4v4h4 4v-4z" fill="#fcd770"/><path d="m51.06 43.19.94 2.81-6 4-6-4 .94-2.81c1.38 1.13 3.14 1.81 5.06 1.81s3.68-.68 5.06-1.81z" fill="#f0d0b4"/><path d="m44 58v4h-8v-4h4z" fill="#e6e9ed"/><path d="m44 54h-4-4v-7l-.47-.1c1.27-.58 2.71-.9 4.23-.9l-.07 4c0 .36.05.71.15 1.04.49 1.71 2.17 2.96 4.16 2.96z" fill="#e6e9ed"/><path d="m40 54h-4v4h4 4v-4z" fill="#fcd770"/><path d="m36 58v4h-6v-6.94c0-3.59 2.26-6.7 5.53-8.16l.47.1v7z" fill="#ff826e"/><path d="m5 49h6v-6h-6zm2-4h2v2h-2z"/><path d="m5 41h6v-6h-6zm2-4h2v2h-2z"/><path d="m13 49h6v-6h-6zm2-4h2v2h-2z"/><path d="m13 41h6v-6h-6zm2-4h2v2h-2z"/><path d="m21 49h6v-6h-6zm2-4h2v2h-2z"/><path d="m21 41h6v-6h-6zm2-4h2v2h-2z"/><path d="m52.729 45.023-.511-1.532c1.711-1.639 2.782-3.94 2.782-6.491v-1h4v-3.414l-2.023-2.023c-.173-3.575-2.439-6.366-5.977-7.698v-13.865h-4v-4h-4v-4h-14v4h-4v4h-4v14h-12v4h-4v4h-4v32h29 1 32v-7.936c0-5.395-4.566-9.799-10.271-10.041zm-3.729 9.977h2v2h-2zm2.268-7.31.038 2.18-2.647-.441zm1.732 7.31h2v2h-2zm2-7.584v5.584h-2.779c.674-.841 1.086-1.88 1.086-3.017l-.051-2.929c.603.065 1.185.191 1.744.362zm-4.19-1.824-4.81 3.206-4.81-3.206.277-.83c1.333.782 2.879 1.238 4.533 1.238s3.2-.456 4.533-1.238zm-23.81-17.592v-1-12h2v16h-2zm4 12h6.525c.475 1.337 1.253 2.528 2.257 3.491l-.511 1.532c-3.41.145-6.408 1.773-8.271 4.218zm6-14.432c-1.183 1.367-1.883 3.066-1.977 4.994l-.023.024v-15.586h2zm-2 10.432h2v1c0 .338.022.671.059 1h-2.059zm8 21h-2v-2h2zm-4 0h-2v-2h2zm-2 2h6v2h-6zm0-6v-5.584c.559-.172 1.141-.298 1.743-.362l-.051 2.946c0 1.129.412 2.162 1.084 3zm3.732-5.31 2.609 1.739-2.646.441zm12.268-10.69c0 3.86-3.14 7-7 7s-7-3.14-7-7v-1h14zm4-3h-22v-.586l1.414-1.414h19.172l1.414 1.414zm-2.085-4h-17.83c.552-3.578 4.058-6 8.915-6s8.363 2.422 8.915 6zm-9.915-7.964c-.695.042-1.36.133-2 .261v-7.297h2zm-14-19.036h10v2h-10zm-4 4h18v2h-18zm-4 4h26v11.297c-.64-.128-1.305-.218-2-.261v-9.036h-6v9.864c-.721.272-1.391.6-2 .987v-10.851h-6v25h-2v-6-1-18h-6v14h-2v-3-1zm-12 14h10v2h-10zm-4 4h18v2h-18zm2 32h-2v-7h2zm8 0h-2v-7h2zm8 0h-2v-7h2zm4 0h-2v-9h-6v9h-2v-9h-6v9h-2v-9h-6v9h-2v-28h26zm2-5.936c0-2.832 1.595-5.326 4-6.765v12.701h-4zm16 5.936h-2v-8h-1c-1.084 0-2.04-.482-2.644-1.212l4.644-.774 4.641.773c-.604.732-1.558 1.213-2.641 1.213h-1zm2-2h6v2h-6zm12 2h-4v-12.701c2.405 1.439 4 3.934 4 6.765z"/></svg>