<svg id="Layer_6" enable-background="new 0 0 64 64" height="512" viewBox="0 0 64 64" width="512" xmlns="http://www.w3.org/2000/svg"><path d="m62 53v2h-8v-15l.11-.21c4.7 2.53 7.89 7.5 7.89 13.21z" fill="#b4dd7f"/><path d="m22 40v11h-7v-2-9z" fill="#b4dd7f"/><path d="m47 38h-1v2c0 2.21-.9 4.21-2.34 5.66-1.45 1.44-3.45 2.34-5.66 2.34-4.42 0-8-3.58-8-8v-2h-1c-1.03 0-2.03.1-3 .31v23.69h12 12v-23.7c-.97-.2-1.97-.3-3-.3z" fill="#b4dd7f"/><path d="m46 38v2l-3.53 3.53c-1.21 1.21-3.26.88-4.03-.66l-.44-.87z" fill="#ff826e"/><path d="m38 42-.44.87c-.77 1.54-2.82 1.87-4.03.66l-3.53-3.53v-2z" fill="#ff826e"/><path d="m26 38.31v23.69h-4v-11-11-.26c1.24-.66 2.58-1.15 4-1.43z" fill="#e6e9ed"/><path d="m54.11 39.79-.11.21v15 7h-4v-23.7c1.46.3 2.84.81 4.11 1.49z" fill="#e6e9ed"/><path d="m42.47 43.53 3.53-3.53c0 2.21-.9 4.21-2.34 5.66-1.45 1.44-3.45 2.34-5.66 2.34-4.42 0-8-3.58-8-8l3.53 3.53c1.21 1.21 3.26.88 4.03-.66l.44-.87.44.87c.77 1.54 2.82 1.87 4.03.66z" fill="#ccd1d9"/><path d="m54 55h8v7h-8z" fill="#f0d0b4"/><path d="m15 40v9h-6c-1.1 0-2-.9-2-2v-13h8z" fill="#f0d0b4"/><path d="m2 26v-8h19v2h4v2h-1-.5c-1.38 0-2.5 1.12-2.5 2.5s1.12 2.5 2.5 2.5h1.5l.26-.07c.7 2.92 2.66 5.43 5.37 7.07h-15.63-8-5z" fill="#b27946"/><path d="m62 30v4h-16.63c2.71-1.64 4.68-4.15 5.37-7.07l.26.07h1.5c1.38 0 2.5-1.12 2.5-2.5s-1.12-2.5-2.5-2.5h-.5-1v-2h4v-2h7v6z" fill="#b27946"/><g fill="#f0d0b4"><path d="m45.05 34.19.95 3.81-8 4-8-4 .95-3.81c2.03 1.14 4.45 1.81 7.05 1.81s5.02-.67 7.05-1.81z"/><path d="m52.5 22c1.38 0 2.5 1.12 2.5 2.5s-1.12 2.5-2.5 2.5h-1.5l-.26-.07c.17-.74.26-1.51.26-2.3v-1.63-1h1z"/><path d="m38 27h-2c-2.76 0-5 2.24-5 5v2h-.37c-2.71-1.64-4.67-4.15-5.37-7.07-.17-.74-.26-1.52-.26-2.31v-1.62-1-2h26v2 1 1.63c0 .79-.09 1.56-.26 2.3-.69 2.92-2.66 5.43-5.37 7.07h-.37v-2c0-2.76-2.24-5-5-5z"/><path d="m25.26 26.93-.26.07h-1.5c-1.38 0-2.5-1.12-2.5-2.5s1.12-2.5 2.5-2.5h.5 1v1 1.62c0 .79.09 1.57.26 2.31z"/></g><path d="m45 34 .05.19c-2.03 1.14-4.45 1.81-7.05 1.81s-5.02-.67-7.05-1.81l.05-.19v-2c0-2.76 2.24-5 5-5h2 2c2.76 0 5 2.24 5 5z" fill="#cf9e76"/><path d="m36 2.13v13.87h-6v-2c0-2.21-1.79-4-4-4h-1.55c2.13-4.19 6.43-7.24 11.55-7.87z" fill="#ffeaa7"/><path d="m51.55 10h-1.55c-2.21 0-4 1.79-4 4v2h-6v-13.87c5.12.63 9.42 3.68 11.55 7.87z" fill="#ffeaa7"/><path d="m55 18v2h-4-26-4v-2-2h2 7 6 4 6 7 2z" fill="#fcd770"/><path d="m53 16h-7v-2c0-2.21 1.79-4 4-4h1.55c.93 1.82 1.45 3.86 1.45 6z" fill="#fcd770"/><path d="m40 2.13v13.87h-4v-13.87c.65-.09 1.32-.13 2-.13s1.35.04 2 .13z" fill="#fcd770"/><path d="m30 14v2h-7c0-2.14.52-4.18 1.45-6h1.55c2.21 0 4 1.79 4 4z" fill="#fcd770"/><path d="m38 31c-.551 0-1-.449-1-1h-2c0 1.654 1.346 3 3 3s3-1.346 3-3h-2c0 .551-.449 1-1 1z"/><path d="m63 35v-18h-7v-2h-2.054c-.553-7.805-7.484-14-15.946-14s-15.393 6.195-15.946 14h-2.054v2h-19v18h5v12c0 1.654 1.346 3 3 3h5v2h7v11h42v-10c0-8.822-7.178-16-16-16h-.219l-.5-2zm-26 18v4h-4v2h4v2h-10v-21.841c.658-.094 1.323-.159 2-.159v1c0 4.624 3.507 8.441 8 8.941v2.059h-4v2zm-15.743-14h-5.257v-4h13.719l-.5 2h-.219c-2.592 0-5.174.641-7.468 1.854zm2.835-13h-.592c-.827 0-1.5-.673-1.5-1.5s.673-1.5 1.5-1.5h.5v1.625c0 .465.035.923.092 1.375zm1.908-5h24v3.625c0 3.062-1.552 5.81-4 7.711v-.336c0-3.309-2.691-6-6-6h-1v-2h-2v2h-1c-3.309 0-6 2.691-6 6v.336c-2.448-1.901-4-4.649-4-7.711zm26 3.625v-1.625h.5c.827 0 1.5.673 1.5 1.5s-.673 1.5-1.5 1.5h-.592c.057-.452.092-.91.092-1.375zm-14 10.375c-2.196 0-4.249-.521-6.021-1.415l.021-1.585c0-2.206 1.794-4 4-4h4c2.206 0 4 1.794 4 4v1.596c-1.768.887-3.813 1.404-6 1.404zm0 12c-2.71 0-5.06-1.551-6.223-3.809l1.045 1.045c.67.67 1.549 1.032 2.473 1.032.191 0 .385-.015.579-.047.85-.138 1.592-.564 2.126-1.202.534.638 1.277 1.064 2.126 1.202.194.032.387.047.579.047.924 0 1.802-.361 2.473-1.032l1.045-1.045c-1.163 2.258-3.513 3.809-6.223 3.809zm-6.936-7.35 5.594 2.797c-.223.431-.625.722-1.105.8-.488.08-.967-.076-1.317-.425zm13.872 0-3.172 3.172c-.35.349-.831.505-1.317.425-.48-.078-.882-.369-1.105-.8zm-6.936 1.232-6.835-3.418.459-1.836c1.915.871 4.079 1.372 6.376 1.372 2.304 0 4.474-.503 6.393-1.379l.447 1.841zm23-21.882v4h-2v2h2v4h-6v2h6v2h-12.723c1.468-1.407 2.573-3.109 3.18-5h1.043c1.93 0 3.5-1.57 3.5-3.5s-1.57-3.5-3.5-3.5h3.5v-2zm-10.08-8c.562 1.247.909 2.593 1.025 4h-4.945v-1c0-1.654 1.346-3 3-3zm-1.128-1.979c-2.659.112-4.792 2.293-4.792 4.979v1h-4v-11.692c3.683.751 6.821 2.851 8.792 5.713zm-10.792-5.974v11.953h-2v-11.953c.332-.022.662-.047 1-.047s.668.025 1 .047zm-4 .261v11.692h-4v-1c0-2.686-2.133-4.867-4.792-4.979 1.971-2.862 5.109-4.962 8.792-5.713zm-9.92 7.692h.92c1.654 0 3 1.346 3 3v1h-4.945c.116-1.407.463-2.753 1.025-4zm-3.08 6h32v2h-32zm-19 10h2v-2h-2v-6h17v2h3.5c-1.93 0-3.5 1.57-3.5 3.5s1.57 3.5 3.5 3.5h1.043c.608 1.891 1.712 3.593 3.18 5h-24.723zm6 21c-.551 0-1-.449-1-1v-12h6v4 1 8zm7 2v-9h5v9zm7-9.646c.65-.31 1.321-.548 2-.752v21.398h-2zm30 20.646h-2v-21.41c.692.207 1.357.474 2 .78zm2 0v-5h6v5zm6-8v1h-6v-12.473c3.622 2.533 6 6.728 6 11.473zm-14-14c.681 0 1.345.065 2 .16v21.84h-10v-2h4v-2h-4v-4h4v-2h-4v-2.059c4.493-.5 8-4.317 8-8.941z"/><path d="m5 29h15v2h-15z"/><path d="m7 25h4v2h-4z"/><path d="m14 24c0 .805-.55.988-1.012 1l.012 2c1.206 0 3-.799 3-3s-1.794-3-3-3h-8v2h7.988c.462.012 1.012.195 1.012 1z"/><circle cx="31" cy="24" r="1"/><circle cx="45" cy="24" r="1"/></svg>