<svg id="Layer_6" enable-background="new 0 0 64 64" height="512" viewBox="0 0 64 64" width="512" xmlns="http://www.w3.org/2000/svg"><path d="m21 30 4.31 4.31c-.63.43-1.42.69-2.31.69v5l.17.17-4 4-.17-.17v-4-5c-.89 0-1.68-.26-2.31-.69z" fill="#e6e9ed"/><path d="m7 44v4h-5v-8.14c0-3.39 2.03-6.33 5-7.82v7.96z" fill="#e6e9ed"/><path d="m19.17 44.17-.17.17v3.66h-12v-4h4 4 4z" fill="#ff826e"/><path d="m19 35v5h-4-4-4v-7.96c1.32-.67 2.82-1.04 4.42-1.04h3.58c0 1.38.64 2.59 1.69 3.31.63.43 1.42.69 2.31.69z" fill="#ff826e"/><path d="m37.322 37h-3.322v-5.34c1.258.52 2.387 1.308 3.309 2.309l1.277 1.385z" fill="#e6e9ed"/><path d="m34 31.66v5.34h-7.66l-3.17 3.17-.17-.17v-5c.89 0 1.68-.26 2.31-.69 1.05-.72 1.69-1.93 1.69-3.31h3.58c1.27 0 2.4.24 3.42.66z" fill="#ff826e"/><g fill="#fcd770"><path d="m15 40h-4-4v4h4 4 4v-4z"/><path d="m21 30-4.31 4.31c-1.05-.72-1.69-1.93-1.69-3.31v-2.8c1.67 1.13 3.75 1.8 6 1.8z"/><path d="m27 28.2v2.8c0 1.38-.64 2.59-1.69 3.31l-4.31-4.31c2.25 0 4.33-.67 6-1.8z"/></g><path d="m32.5 15c1.38 0 2.5 1.34 2.5 3s-1.12 3-2.5 3h-1.5v-6z" fill="#f0d0b4"/><path d="m27 28.2c-1.67 1.13-3.75 1.8-6 1.8s-4.33-.67-6-1.8c-2.43-1.64-4-4.26-4-7.2v-6h20v6c0 2.94-1.57 5.56-4 7.2z" fill="#f0d0b4"/><path d="m11 15v6h-1.5c-1.38 0-2.5-1.34-2.5-3s1.12-3 2.5-3z" fill="#f0d0b4"/><path d="m31.7 7h-1.7c-1.1 0-2 .9-2 2v2h-5v-8.88c3.99.49 7.08 2.44 8.7 4.88z" fill="#ffeaa7"/><path d="m19 2.12v8.88h-5v-2c0-1.1-.9-2-2-2h-1.7c1.62-2.44 4.71-4.39 8.7-4.88z" fill="#ffeaa7"/><path d="m23 2.12v8.88h-4v-8.88c.65-.08 1.31-.12 2-.12s1.35.04 2 .12z" fill="#ffc729"/><path d="m14 9v2h-5c0-1.38.46-2.75 1.3-4h1.7c1.1 0 2 .9 2 2z" fill="#fcd770"/><path d="m33 11h-5v-2c0-1.1.9-2 2-2h1.7c.84 1.25 1.3 2.62 1.3 4z" fill="#fcd770"/><path d="m56.46 36.66-.76-.76-1.6-1.6-1.5-1.5-.89-.9s-1.6-1.59 0-3.19 3.19 0 3.19 0l2.4 2.39 1.6 1.6 2.39 2.4s1.6 1.59 0 3.19c-.44.44-.88.64-1.29.69-1.07.15-1.9-.69-1.9-.69z" fill="#aab2bd"/><path d="m61 55v4h-5l-.12-.03c.08-.31.12-.64.12-.97 0-1.1-.45-2.1-1.17-2.83l.17-.17h4z" fill="#ccd1d9"/><circle cx="59" cy="52" fill="#fcd770" r="2"/><path d="m56.46 36.66c2.37 3.32 2.75 7.52 1.3 11.1l-15.31-15.31c2.71-1.27 6.23-1.69 10.15.35l1.5 1.5 1.6 1.6z" fill="#e6e9ed"/><path d="m42.45 32.45 15.31 15.31c-.54 1.32-1.32 2.55-2.34 3.62l-.42-.38-16-16-.08-.08c.91-.9 2.1-1.81 3.53-2.47z" fill="#ff826e"/><path d="m56 58c0 .33-.04.66-.12.97-.43 1.74-2.01 3.03-3.88 3.03s-3.45-1.29-3.88-3.03c-.08-.31-.12-.64-.12-.97 0-1.65 1-3.07 2.43-3.67.01 0 .01 0 .02-.01.24-.07.48-.15.71-.23.01 0 .03-.01.04-.01.26-.05.52-.08.8-.08 1.1 0 2.1.45 2.83 1.17.72.73 1.17 1.73 1.17 2.83z" fill="#838f9b"/><path d="m55 51 .42.38c-.33.36-.69.69-1.08 1.01-.87.71-1.97 1.27-3.14 1.69-.01 0-.03.01-.04.01-.25.05-.49.13-.71.23-.01.01-.01.01-.02.01-1.53.45-3.11.67-4.43.67h-4l-2-9h-3v-8c0-.63.69-1.85 1.92-3.08l.08.08z" fill="#e6e9ed"/><path d="m46 55c1.32 0 2.9-.22 4.43-.67-1.43.6-2.43 2.02-2.43 3.67 0 .33.04.66.12.97l-.12.03h-16l-.12-.03c.08-.31.12-.64.12-.97 0-1.1-.45-2.1-1.17-2.83l.17-.17h2 4 5z" fill="#ccd1d9"/><path d="m40 46 2 9h-5v-9z" fill="#fcd770"/><path d="m34 37h-7.66l-3.17 3.17-4 4-.17.17v3.66 7h18v-9-8-1z" fill="#b4dd7f"/><path d="m35 11v4h-2.5-1.5-20-1.5-2.5v-4h2 5 5 4 5 5z" fill="#fcd770"/><path d="m33 46v9h-2l-.17.17c-.73-.72-1.73-1.17-2.83-1.17s-2.1.45-2.83 1.17l-.17-.17h-2v-9z" fill="#a0d468"/><path d="m33 41v5h-10l5-5z" fill="#69d6f4"/><path d="m32 58c0 .33-.04.66-.12.97-.43 1.74-2.01 3.03-3.88 3.03s-3.45-1.29-3.88-3.03c-.08-.31-.12-.64-.12-.97 0-1.1.45-2.1 1.17-2.83.73-.72 1.73-1.17 2.83-1.17s2.1.45 2.83 1.17c.72.73 1.17 1.73 1.17 2.83z" fill="#838f9b"/><path d="m25 55 .17.17c-.72.73-1.17 1.73-1.17 2.83 0 .33.04.66.12.97l-.12.03h-5v-4h4z" fill="#ccd1d9"/><path d="m28 49h2v2h-2z"/><circle cx="28" cy="58" r="1"/><circle cx="52" cy="58" r="1"/><path d="m62.812 44.939-1.594-5.356c.264-.151.526-.332.78-.587 1.69-1.69.926-3.682 0-4.607l-6.387-6.387c-.926-.927-2.917-1.691-4.608 0-.902.902-1.102 1.889-.954 2.755-4.054-1.008-7.326.309-9.119 1.364-.93.547-1.749 1.194-2.454 1.864-.992-1.291-2.158-2.285-3.475-2.952v-.033h-.074c-1.315-.652-2.769-1-4.342-1h-2.585v-1.292c2.175-1.636 3.649-4.016 3.944-6.708h.556c1.93 0 3.5-1.794 3.5-4 0-.732-.185-1.409-.487-2h.487v-6h-2.076c-.63-4.502-5.449-9-12.924-9s-12.294 4.498-12.924 9h-2.076v6h.487c-.302.591-.487 1.268-.487 2 0 2.206 1.57 4 3.5 4h.556c.295 2.691 1.769 5.072 3.944 6.708v1.292h-2.584c-5.744 0-10.416 4.424-10.416 9.861v9.139h17v5 1 5h5.424c.774 1.763 2.531 3 4.576 3s3.802-1.237 4.576-3h14.848c.774 1.763 2.531 3 4.576 3s3.802-1.237 4.576-3h5.424v-6h-.78c.48-.532.78-1.229.78-2 0-.755-.289-1.437-.751-1.965l.707-.891c.974-1.227 1.286-2.759.856-4.205zm-2.422 2.961-.911 1.148c-.157-.025-.315-.048-.479-.048-.266 0-.519.046-.765.111.698-1.372 1.153-2.871 1.314-4.448.165-1.619.013-3.219-.42-4.738.035.007.072.006.108.013l1.659 5.572c.243.823.064 1.672-.506 2.39zm-.39 4.1c0 .552-.449 1-1 1s-1-.448-1-1 .449-1 1-1 1 .448 1 1zm-7.583-20.804c-.208-.209-.825-.954 0-1.779.31-.31.607-.419.875-.419.386 0 .707.229.905.419l6.387 6.387c.208.209.825.954 0 1.779-.756.756-1.444.321-1.78 0l-1.643-1.643c-.128-.175-.248-.354-.386-.523l-.076.062-3.263-3.263.05-.09c-.096-.053-.189-.094-.284-.144zm-.412 2.417 3.647 3.647c1.488 2.094 2.168 4.621 1.906 7.201-.049.487-.143.961-.255 1.428l-13.063-13.063c2.066-.64 4.726-.738 7.765.787zm-9.786.075c.012-.006.025-.013.036-.019l14.306 14.306c-.332.693-.737 1.349-1.215 1.957l-14.973-14.973c.535-.447 1.149-.886 1.846-1.271zm-4.219 13.312h1.198l1.556 7h-2.754zm4.802 7-2-9h-2.802v-6.996c.015-.272.355-.897.961-1.629l15.005 15.005c-.088.076-.168.159-.259.233-2.012 1.64-5.399 2.387-7.698 2.387-.002 0-.005 0-.008 0zm-5.68-18.502c-.125.169-.254.338-.36.502h-1.762v-2.651c.785.549 1.494 1.266 2.122 2.149zm-4.122-3.127v3.629h-7.071l-1.929 1.929v-2.021c2.017-.378 3.53-1.892 3.908-3.908h2.676c.858 0 1.66.133 2.416.371zm-25 8.629h2v2h-2zm4 0h2v2h-2zm4 0h2v2h-2zm3-7c-.186 0-.363-.021-.537-.049l2.537-2.537 2.537 2.537c-.174.028-.351.049-.537.049h-1v5.929l-2 2v-7.929zm7-4v1c0 .756-.249 1.412-.662 1.924l-2.127-2.127c.985-.184 1.918-.495 2.789-.901zm8-12c0 1.084-.687 2-1.5 2h-.5v-4h.5c.813 0 1.5.916 1.5 2zm-7-9v1h-3v-6.686c2.277.477 4.171 1.471 5.541 2.732-1.436.223-2.541 1.457-2.541 2.954zm2 0c0-.552.449-1 1-1h1.131c.377.648.631 1.322.761 2h-2.892zm-7-5.961v6.961h-2v-6.961c.329-.021.66-.039 1-.039s.671.018 1 .039zm-9.541 3.007c1.37-1.261 3.263-2.255 5.541-2.732v6.686h-3v-1c0-1.497-1.105-2.731-2.541-2.954zm-1.59 1.954h1.131c.551 0 1 .448 1 1v1h-2.892c.13-.678.385-1.352.761-2zm-2.869 4h26v2h-26zm0 6c0-1.084.687-2 1.5-2h.5v4h-.5c-.813 0-1.5-.916-1.5-2zm4 3v-5h18v5c0 4.411-4.038 8-9 8s-9-3.589-9-8zm4 8.896c.871.406 1.804.717 2.789.901l-2.127 2.127c-.413-.512-.662-1.168-.662-1.924v-1zm-1.908 2.104c.378 2.017 1.891 3.53 3.908 3.908v3.092h-10v-6.317c1.045-.436 2.199-.683 3.416-.683zm-11.092 7.861c0-2.409 1.168-4.565 3-6.008v13.147h-3zm5 7.139v-2h10v2zm12-2.243 6.757-6.757h9.243v16h-2v-14h-6.414l-5.586 5.586v8.414h-2zm12 .243h-6.586l3-3h3.586zm-8 9v-7h8v7h-1v.026c-.838-.635-1.87-1.026-3-1.026s-2.162.391-3 1.026v-.026zm-4 4v-2h3.424c-.27.614-.424 1.288-.424 2zm8 3c-1.654 0-3-1.346-3-3s1.346-3 3-3 3 1.346 3 3-1.346 3-3 3zm5-3c0-.712-.154-1.386-.424-2h13.423.01 1.415c-.27.614-.424 1.288-.424 2zm19 3c-1.654 0-3-1.346-3-3 0-1.228.743-2.283 1.801-2.746.116-.035.23-.077.346-.115.272-.082.555-.139.853-.139 1.654 0 3 1.346 3 3s-1.346 3-3 3zm8-3h-3c0-.712-.154-1.386-.424-2h3.424zm-5-4v.026c-.207-.157-.428-.292-.658-.416.214-.146.433-.287.629-.447.372-.303.718-.629 1.049-.967.046.693.322 1.319.76 1.805h-1.78z"/><path d="m20 20h2v2h-2z"/><path d="m21 27c1.654 0 3-1.346 3-3h-2c0 .552-.449 1-1 1s-1-.448-1-1h-2c0 1.654 1.346 3 3 3z"/><circle cx="27" cy="19" r="1"/><circle cx="15" cy="19" r="1"/></svg>