<svg id="Layer_6" enable-background="new 0 0 64 64" height="512" viewBox="0 0 64 64" width="512" xmlns="http://www.w3.org/2000/svg"><path d="m18 37v9h-6v-3c0-3.19 2.5-6.42 6-8.55z" fill="#b4dd7f"/><path d="m37 37h.12c-.75 1.02-1.89 1.72-3.12 2v10h-4v-1-9c-1.23-.28-2.37-.98-3.12-2h.12l5-2z" fill="#b4dd7f"/><path d="m46 34.45c3.5 2.13 6 5.36 6 8.55v2h-6v-8z" fill="#b4dd7f"/><path d="m30 39v9c0-1.1-.9-2-2-2h-2v-2.45s0-1.55-2-1.55-2 1.55-2 1.55v2.45h-4v-9h8.88c.75 1.02 1.89 1.72 3.12 2z" fill="#fcd770"/><path d="m46 45v4h-4v-6h-4v6h-4v-10c1.23-.28 2.37-.98 3.12-2h8.88z" fill="#fcd770"/><path d="m26.88 37h-8.88v-2.55c2.36-1.44 5.18-2.37 8-2.45v2.29c0 1.05.33 1.97.88 2.71z" fill="#e6e9ed"/><path d="m38 32c2.82.08 5.64 1.01 8 2.45v2.55h-8.88c.55-.74.88-1.66.88-2.71z" fill="#e6e9ed"/><path d="m32 35-5 2h-.12c-.55-.74-.88-1.66-.88-2.71v-2.29z" fill="#ccd1d9"/><path d="m38 32v2.29c0 1.05-.33 1.97-.88 2.71h-.12l-5-2z" fill="#ccd1d9"/><path d="m38 43h4v6h-4z" fill="#e6e9ed"/><path d="m46 45h6v4h-6z" fill="#f0d0b4"/><path d="m30 48v1 1c0 1.1-.9 2-2 2h-2-4-8c-1.1 0-2-.9-2-2v-4h6 4 4 2c1.1 0 2 .9 2 2z" fill="#f0d0b4"/><path d="m26 52v4h-2-2v-4z" fill="#838f9b"/><path d="m26 43.55v2.45h-4v-2.45s0-1.55 2-1.55 2 1.55 2 1.55z" fill="#838f9b"/><g fill="#f0d0b4"><path d="m36.94 28.83 1.06 3.17-6 3-6-3 1.06-3.17v-.01c1.46.75 3.14 1.18 4.94 1.18s3.48-.43 4.94-1.18z"/><path d="m46 21c0 1.66-1.4 3-3.12 3h-.88-.57c.37-.94.57-1.95.57-3v-3h.88c1.72 0 3.12 1.34 3.12 3z"/><path d="m42 18v3c0 1.05-.2 2.06-.57 3h-.01c-.8 2.05-2.41 3.76-4.48 4.82-1.46.75-3.14 1.18-4.94 1.18s-3.48-.43-4.94-1.18c-2.07-1.06-3.68-2.77-4.48-4.82h-.01c-.37-.94-.57-1.95-.57-3v-3-2h20z"/><path d="m21.12 24c-1.72 0-3.12-1.34-3.12-3s1.4-3 3.12-3h.88v3c0 1.05.2 2.06.57 3h-.57z"/></g><path d="m30 2.14v9.86h-5v-4h-3.96c1.55-2.92 4.76-5.29 8.96-5.86z" fill="#ff826e"/><path d="m42.96 8h-3.96v4h-5v-9.86c4.2.57 7.41 2.94 8.96 5.86z" fill="#ff826e"/><path d="m46 12v4h-4-20-4v-4h2 5 5 4 5 5z" fill="#ff826e"/><path d="m44 12h-5v-4h3.96c.68 1.27 1.04 2.63 1.04 4z" fill="#fc6e51"/><path d="m34 2.14v9.86h-4v-9.86c.65-.09 1.31-.14 2-.14s1.35.05 2 .14z" fill="#fc6e51"/><path d="m25 8v4h-5c0-1.37.36-2.73 1.04-4z" fill="#fc6e51"/><path d="m38.738 31.054-.589-1.766c1.717-1.056 3.085-2.544 3.926-4.287h.8c2.274-.001 4.125-1.795 4.125-4.001 0-2.165-1.784-3.922-4-3.988v-.012h4v-6h-2.059c-.578-4.985-5.416-10-12.941-10s-12.363 5.015-12.941 10h-2.059v6h4v.012c-2.216.066-4 1.823-4 3.988 0 2.206 1.851 4 4.125 4h.8c.841 1.743 2.209 3.231 3.926 4.287l-.589 1.766c-7.304.557-14.262 6.295-14.262 11.947v2 1 4c0 1.654 1.346 3 3 3h7v4h2v6h2v-6h2v-4h1c1.654 0 3-1.346 3-3h22v-7c0-5.652-6.958-11.39-14.262-11.946zm12.262 11.946v1h-4v-7.632c2.394 1.871 4 4.283 4 6.632zm-12-9.93c2.105.226 4.178.947 6 1.971v.959h-6.269c.164-.525.269-1.088.269-1.706zm-10 12.114c-.314-.112-.648-.184-1-.184h-1v-1.45c0-1.025-.799-2.55-3-2.55s-3 1.524-3 2.55v1.45h-2v-7h7.408c.716.802 1.628 1.396 2.592 1.745zm-6-.184-.001-1.422c.018-.264.205-.578 1.001-.578s.983.314 1 .55v1.45zm4.329-9.209c-.204-.442-.329-.939-.329-1.497v-.676l2.561 1.28zm9.342 0-2.232-.893 2.561-1.28v.676c0 .558-.125 1.055-.329 1.497zm8.329-14.791c0 1.103-.953 2-2.125 2h-.097c.145-.646.222-1.315.222-2v-1.988c1.113.062 2 .926 2 1.988zm-2.082-10h-2.918v-2h2.333c.289.654.487 1.326.585 2zm-1.816-4h-3.102v4h-3v-7.661c2.647.599 4.728 1.963 6.102 3.661zm-8.102-3.957v7.957h-2v-7.957c.328-.023.658-.043 1-.043s.672.02 1 .043zm-4 .296v7.661h-3v-4h-3.102c1.374-1.698 3.455-3.062 6.102-3.661zm-7.333 5.661h2.333v2h-2.918c.098-.674.296-1.346.585-2zm-2.667 4h26v2h-26zm2.125 10c-1.172 0-2.125-.897-2.125-2 0-1.062.887-1.926 2-1.988v1.988c0 .685.077 1.354.222 2zm1.875-2v-4h18v4c0 4.411-4.037 8-9 8s-9-3.589-9-8zm9 10c1.541 0 3.008-.292 4.341-.815l.436 1.308-4.777 2.389-4.777-2.389.436-1.308c1.333.523 2.8.815 4.341.815zm-6.731 5h-6.269v-.959c1.822-1.024 3.895-1.745 6-1.971v1.224c0 .618.105 1.181.269 1.706zm-12.269 7c0-2.349 1.606-4.761 4-6.632v8.632h-4zm12 12h-2v-2h2zm4-5c0 .552-.448 1-1 1h-14c-.552 0-1-.448-1-1v-3h15c.552 0 1 .448 1 1zm4-11.797v9.797h-2v-9.797l-.776-.178c-.513-.118-1.023-.341-1.486-.643l3.216-1.286.046.022.046-.023 3.216 1.286c-.463.303-.972.526-1.486.643zm2 1.542c.963-.349 1.876-.943 2.592-1.745h7.408v10h-2v-6h-6v6h-2zm6 8.255h-2v-4h2zm6 0v-2h4v2z"/><path d="m31 20h2v2h-2z"/><path d="m35 24h-2c0 .552-.448 1-1 1s-1-.448-1-1h-2c0 1.654 1.346 3 3 3s3-1.346 3-3z"/><circle cx="38" cy="20" r="1"/><circle cx="26" cy="20" r="1"/></svg>