<svg id="Layer_6" enable-background="new 0 0 64 64" height="512" viewBox="0 0 64 64" width="512" xmlns="http://www.w3.org/2000/svg"><path d="m33.96 8h-1.96c-1.1 0-2 .9-2 2v2h-5v-9.86c4.2.57 7.41 2.94 8.96 5.86z" fill="#ff826e"/><path d="m21 2.14v9.86h-5v-2c0-1.1-.9-2-2-2h-1.96c1.55-2.92 4.76-5.29 8.96-5.86z" fill="#ff826e"/><path d="m16 10v2h-5c0-1.37.36-2.73 1.04-4h1.96c1.1 0 2 .9 2 2z" fill="#fc6e51"/><path d="m35 12h-5v-2c0-1.1.9-2 2-2h1.96c.68 1.27 1.04 2.63 1.04 4z" fill="#fc6e51"/><path d="m25 2.14v9.86h-4v-9.86c.65-.09 1.31-.14 2-.14s1.35.05 2 .14z" fill="#fc6e51"/><path d="m37 12v4h-4-20-4v-4h2 5 5 4 5 5z" fill="#fc6e51"/><path d="m21 40.57v9.43h-7-4v-16l-.08-.17c1.21-.53 2.54-.83 3.94-.83h3.14v2c0 1.74 1.11 3.21 2.65 3.77.79.28 1.35.97 1.35 1.8z" fill="#fcd770"/><path d="m36.18 33.54-.18.46v9h-4v6 1h-6-1v-9.43c0-.83.56-1.52 1.35-1.8 1.54-.56 2.65-2.03 2.65-3.77v-2h4.14c1.07 0 2.09.19 3.04.54z" fill="#fcd770"/><path d="m10 34v16h-6v-7.14c0-4.02 2.45-7.51 5.92-9.03z" fill="#ffeaa7"/><path d="m17 33s2 2 6 2 6-2 6-2v2c0 1.74-1.11 3.21-2.65 3.77-.79.28-1.35.97-1.35 1.8v9.43h-4v-9.43c0-.83-.56-1.52-1.35-1.8-1.54-.56-2.65-2.03-2.65-3.77z" fill="#ffeaa7"/><path d="m42 41.86v1.14h-6v-9l.18-.46c3.4 1.24 5.82 4.5 5.82 8.32z" fill="#ffeaa7"/><path d="m28 29 1 4s-2 2-6 2-6-2-6-2l1-4 .09-.17c1.45.75 3.13 1.17 4.91 1.17s3.46-.42 4.91-1.17z" fill="#f0d0b4"/><path d="m37 20.5c0 1.38-1.12 2.5-2.5 2.5h-1.5l-.23-.06c.15-.62.23-1.27.23-1.94v-3h1.5c1.38 0 2.5 1.12 2.5 2.5z" fill="#f0d0b4"/><path d="m13 16h20v2 3c0 .67-.08 1.32-.23 1.94-.62 2.53-2.42 4.66-4.86 5.89-1.45.75-3.13 1.17-4.91 1.17s-3.46-.42-4.91-1.17c-2.44-1.23-4.24-3.36-4.86-5.89-.15-.62-.23-1.27-.23-1.94v-3z" fill="#f0d0b4"/><path d="m13 21c0 .67.08 1.32.23 1.94l-.23.06h-1.5c-1.38 0-2.5-1.12-2.5-2.5s1.12-2.5 2.5-2.5h1.5z" fill="#f0d0b4"/><g fill="#d3a06c"><path d="m56 56h6v6h-6z"/><path d="m44 56v6h-12v-6h6z"/><path d="m20 56v6h-12v-6h6z"/><path d="m14 50v6h-6-6v-6h2 6z"/><path d="m38 50v6h-6-6v-6h6z"/><path d="m62 50v6h-6-6v-6h6z"/><path d="m56 43v7h-6-6v-7h8l.08-.04 1.19 2.55c.3.65 1.16.65 1.46 0l1.19-2.55z"/></g><path d="m56 56v6h-12v-6h6z" fill="#cf9e76"/><path d="m32 56v6h-12v-6h6z" fill="#cf9e76"/><path d="m2 56h6v6h-6z" fill="#cf9e76"/><path d="m26 50v6h-6-6v-6h7 4z" fill="#cf9e76"/><path d="m50 50v6h-6-6v-6h6z" fill="#cf9e76"/><path d="m56 43h6v7h-6z" fill="#cf9e76"/><path d="m44 43v7h-6-6v-1-6h4 6z" fill="#cf9e76"/><path d="m54.73 45.51c-.3.65-1.16.65-1.46 0l-1.19-2.55-4.99-10.69c-.28-.58.12-1.27.73-1.27h6.18 6.18c.61 0 1.01.69.73 1.27l-4.99 10.69z" fill="#e6e9ed"/><path d="m54 13c3 0 3 3 3 3v1h-6v-1s0-3 3-3z" fill="#fcd770"/><path d="m57 17v8h-3-3v-8z" fill="#969faa"/><path d="m22 20h2v2h-2z"/><path d="m26 24h-2c0 .551-.448 1-1 1s-1-.449-1-1h-2c0 1.654 1.346 3 3 3s3-1.346 3-3z"/><path d="m57.477 42 4.341-9.303c.28-.601.236-1.293-.119-1.851-.337-.53-.906-.846-1.521-.846h-5.178v-4h3v-10c0-1.608-1.065-4-4-4s-4 2.392-4 4v10h3v4h-5.178c-.615 0-1.185.316-1.521.847-.355.558-.399 1.25-.119 1.85l4.341 9.303h-7.523v-.138c0-5.438-4.424-9.862-9.861-9.862h-3.359l-.672-2.689c2.057-1.254 3.625-3.12 4.385-5.311h1.007c1.93 0 3.5-1.57 3.5-3.5s-1.57-3.5-3.5-3.5h3.5v-6h-2.059c-.578-4.985-5.416-10-12.941-10s-12.363 5.015-12.941 10h-2.059v6h3.5c-1.93 0-3.5 1.57-3.5 3.5s1.57 3.5 3.5 3.5h1.007c.76 2.191 2.327 4.057 4.385 5.311l-.672 2.689h-2.358c-5.99 0-10.862 4.873-10.862 10.862v6.138h-2v14h62v-21zm-3.477-28c1.826 0 1.992 1.537 2 2h-4c0-.334.097-2 2-2zm-2 4h4v6h-4zm-33 39v4h-10v-4zm6-6v4h-10v-4zm-5.011-13.174c-1.189-.426-1.989-1.561-1.989-2.826v-.137c1.12.571 2.785 1.137 5 1.137s3.88-.566 5-1.137v.137c0 1.265-.8 2.4-1.989 2.826-1.222.437-2.011 1.514-2.011 2.744v8.43h-2v-8.43c0-1.23-.789-2.307-2.011-2.744zm23.011 6.174v5h-10v-5zm-4 11v-4h10v4zm-2-4v4h-10v-4zm-16 6h10v4h-10zm12 0h10v4h-10zm12 0h10v4h-10zm6-2v-4h10v4zm10-6h-4v-5h4zm-8-17v4h2v-4h4.937l-5.938 12.724-5.974-12.724zm-.641 13.937c.307.656.935 1.063 1.641 1.063.367 0 .709-.114 1-.312v2.312h-10v-5h6.456zm-11.359-4.075v.138h-4v-6.978c2.385 1.351 4 3.908 4 6.84zm-11-7.862h3.139c.642 0 1.263.086 1.861.232v7.768h-4v7h-5v-8.43c0-.375.269-.712.685-.861 1.983-.709 3.315-2.602 3.315-4.709zm6-13.5c0 .827-.673 1.5-1.5 1.5h-.556c.036-.329.056-.662.056-1v-2h.5c.827 0 1.5.673 1.5 1.5zm-2.082-9.5h-2.918v-1c0-.551.448-1 1-1h1.333c.289.654.487 1.326.585 2zm-1.816-4h-.102c-1.654 0-3 1.346-3 3v1h-3v-7.661c2.647.599 4.728 1.963 6.102 3.661zm-8.102-3.957v7.957h-2v-7.957c.328-.023.658-.043 1-.043s.672.02 1 .043zm-4 .296v7.661h-3v-1c0-1.654-1.346-3-3-3h-.102c1.374-1.698 3.455-3.062 6.102-3.661zm-7.333 5.661h1.333c.552 0 1 .449 1 1v1h-2.918c.098-.674.296-1.346.585-2zm-2.667 6v-2h26v2zm1.5 7c-.827 0-1.5-.673-1.5-1.5s.673-1.5 1.5-1.5h.5v2c0 .338.02.671.056 1zm2.5-1v-4h18v4c0 4.411-4.037 8-9 8s-9-3.589-9-8zm9 10c1.515 0 2.959-.28 4.273-.786l.602 2.407c-.708.499-2.315 1.379-4.875 1.379s-4.167-.88-4.875-1.378l.602-2.407c1.314.505 2.758.785 4.273.785zm-7 3v1c0 2.107 1.332 4 3.315 4.709.416.149.685.487.685.861v8.43h-9v-14.517c.899-.308 1.859-.483 2.861-.483zm-11 8.862c0-3.091 1.594-5.814 4-7.401v13.539h-4zm8 8.138v4h-10v-4zm-10 6h4v4h-4zm54 4v-4h4v4z"/><circle cx="29" cy="20" r="1"/><circle cx="17" cy="20" r="1"/><path d="m13 41h5v2h-5z"/><path d="m13 45h5v2h-5z"/></svg>