<svg height="480pt" viewBox="0 0 480 480.00596" width="480pt" xmlns="http://www.w3.org/2000/svg"><path d="m272.003906 40c0 17.671875-14.328125 32-32 32-17.675781 0-32-14.328125-32-32s14.324219-32 32-32c17.671875 0 32 14.328125 32 32zm0 0" fill="#4db7e5"/><path d="m224.003906 192c.035156-9.484375-5.535156-18.089844-14.199218-21.941406-8.667969-3.847656-18.789063-2.210938-25.800782 4.171875-9.441406-8.589844-23.96875-8.25-32.992187.777343-9.027344 9.027344-9.367188 23.550782-.777344 32.992188-8.589844 9.441406-8.25 23.964844.777344 32.992188 9.023437 9.027343 23.550781 9.367187 32.992187.777343 9.441406 8.589844 23.964844 8.25 32.992188-.777343 9.023437-9.027344 9.367187-23.550782.773437-32.992188 3.996094-4.375 6.21875-10.078125 6.234375-16zm0 0" fill="#4db7e5"/><path d="m256.003906 192c-.039062-9.484375 5.53125-18.089844 14.199219-21.941406 8.667969-3.847656 18.789063-2.210938 25.800781 4.171875 9.441406-8.589844 23.964844-8.25 32.992188.777343 9.023437 9.027344 9.367187 23.550782.773437 32.992188 8.59375 9.441406 8.25 23.964844-.773437 32.992188-9.027344 9.027343-23.550782 9.367187-32.992188.777343-9.441406 8.589844-23.96875 8.25-32.992187-.777343-9.027344-9.027344-9.367188-23.550782-.777344-32.992188-3.992187-4.375-6.214844-10.078125-6.230469-16zm0 0" fill="#4db7e5"/><path d="m176.003906 280h16v-48h-16c-13.253906 0-24 10.746094-24 24s10.746094 24 24 24zm0 0" fill="#e0e0de"/><path d="m304.003906 232h-16v48h16c13.253906 0 24-10.746094 24-24s-10.746094-24-24-24zm0 0" fill="#e0e0de"/><path d="m240.003906 184c30.925782 0 56 25.070312 56 56v24c0 30.929688-25.074218 56-56 56-30.929687 0-56-25.070312-56-56v-24c0-30.929688 25.070313-56 56-56zm0 0" fill="#ebebe9"/><path d="m285.433594 207.351562c-11.421875 66.402344-58.816406 87.199219-87.359375 93.6875 15.394531 17.46875 39.996093 23.574219 61.769531 15.339844 21.777344-8.238281 36.179688-29.097656 36.160156-52.378906v-24c.003906-11.722656-3.695312-23.148438-10.570312-32.648438zm0 0" fill="#e0e0de"/><path d="m208.003906 224h16v16h-16zm0 0" fill="#8c4b32"/><path d="m256.003906 224h16v16h-16zm0 0" fill="#8c4b32"/><path d="m240.003906 278.609375c-8.121094.011719-15.917968-3.207031-21.65625-8.953125l11.3125-11.3125c5.714844 5.703125 14.96875 5.703125 20.6875 0l11.3125 11.3125c-5.742187 5.746094-13.535156 8.964844-21.65625 8.953125zm0 0" fill="#e94f4f"/><path d="m200.003906 200 40-72 40 72zm0 0" fill="#e94f4f"/><path d="m168.003906 320h144v152h-144zm0 0" fill="#7eb457"/><path d="m80.003906 352h-48l10.664063 32h49.335937zm0 0" fill="#e94f4f"/><path d="m125.882812 350.398438-21.878906 65.601562-12-32h-49.335937l19.199219 57.601562c6.042968 18.125 23.011718 30.351563 42.121093 30.351563s36.074219-12.226563 42.117188-30.351563l21.898437-65.601562v-56c-19.121094.007812-36.089844 12.253906-42.121094 30.398438zm0 0" fill="#4db7e5"/><path d="m80.003906 352h-48c-13.253906 0-24-10.746094-24-24v-24h40v16c14.457032.050781 26.945313 10.121094 30.054688 24.238281zm0 0" fill="#feb784"/><path d="m400.003906 352h48l-10.664062 32h-49.335938zm0 0" fill="#e94f4f"/><path d="m354.121094 350.398438 21.882812 65.601562 12-32h49.335938l-19.199219 57.601562c-6.046875 18.125-23.011719 30.351563-42.121094 30.351563s-36.074219-12.226563-42.121093-30.351563l-21.894532-65.601562v-56c19.121094.007812 36.089844 12.253906 42.117188 30.398438zm0 0" fill="#fdbb3d"/><path d="m400.003906 352h48c13.253906 0 24-10.746094 24-24v-24h-40v16c-14.457031.050781-26.945312 10.121094-30.058594 24.238281zm0 0" fill="#feb784"/><path d="m168.003906 320h32l40 64v40l-40 48h-32zm0 0" fill="#fdbb3d"/><path d="m312.003906 320h-32l-40 64v40l40 48h32zm0 0" fill="#4db7e5"/><g fill="#e94f4f"><path d="m200.003906 368v-48l40 24zm0 0"/><path d="m280.003906 320v48l-40-24zm0 0"/><path d="m168.003906 408h48v16h-48zm0 0"/><path d="m264.003906 408h48v16h-48zm0 0"/><path d="m72.003906 224c0 17.671875-14.328125 32-32 32-17.675781 0-32-14.328125-32-32s14.324219-32 32-32c17.671875 0 32 14.328125 32 32zm0 0"/><path d="m472.003906 224c0 17.671875-14.328125 32-32 32-17.675781 0-32-14.328125-32-32s14.324219-32 32-32c17.671875 0 32 14.328125 32 32zm0 0"/></g><path d="m120.003906 96c0 17.671875-14.328125 32-32 32-17.675781 0-32-14.328125-32-32s14.324219-32 32-32c17.671875 0 32 14.328125 32 32zm0 0" fill="#7eb457"/><path d="m424.003906 96c0 17.671875-14.328125 32-32 32-17.675781 0-32-14.328125-32-32s14.324219-32 32-32c17.671875 0 32 14.328125 32 32zm0 0" fill="#fdbb3d"/><path d="m200.003906 40c0 22.089844 17.90625 40 40 40 22.089844 0 40-17.910156 40-40s-17.910156-40-40-40c-22.082031.0273438-39.972656 17.917969-40 40zm64 0c0 13.253906-10.746094 24-24 24s-24-10.746094-24-24 10.746094-24 24-24 24 10.746094 24 24zm0 0"/><path d="m208.003906 224h16v16h-16zm0 0"/><path d="m256.003906 224h16v16h-16zm0 0"/><path d="m240.003906 278.609375c8.121094.011719 15.914063-3.207031 21.65625-8.953125l-11.3125-11.3125c-5.71875 5.703125-14.972656 5.703125-20.6875 0l-11.3125 11.3125c5.738282 5.746094 13.535156 8.964844 21.65625 8.953125zm0 0"/><path d="m472.003906 296h-40c-4.417968 0-8 3.582031-8 8v8.800781c-14.816406 3.207031-26.441406 14.695313-29.824218 29.472657l-1.824219 7.3125-11.847657 31.574218-4.058593 10.839844-14.734375-44.199219c-7.125-21.398437-27.160156-35.824219-49.710938-35.800781h-29.808594c7.484376-6.566406 13.335938-14.78125 17.09375-24h4.714844c17.671875 0 32-14.328125 32-32-.046875-3.148438-.5625-6.277344-1.535156-9.273438 6.089844-5.992187 9.527344-14.179687 9.535156-22.726562-.003906-5.625-1.507812-11.148438-4.359375-16 2.851563-4.851562 4.355469-10.375 4.359375-16 0-17.671875-14.328125-32-32-32-5.628906 0-11.152344 1.511719-16 4.367188-8.488281-4.800782-18.679687-5.546876-27.777344-2.03125l-21.230468-38.214844c-1.53125-2.375-4.167969-3.8125-6.992188-3.8125-2.828125 0-5.460937 1.4375-6.992187 3.8125l-21.234375 38.214844c-9.09375-3.515626-19.289063-2.769532-27.773438 2.03125-4.847656-2.855469-10.375-4.367188-16-4.367188-17.675781 0-32 14.328125-32 32 .003906 5.625 1.507813 11.148438 4.359375 16-2.851562 4.851562-4.355469 10.375-4.359375 16 .007813 8.546875 3.441406 16.734375 9.535156 22.726562-.972656 2.996094-1.492187 6.125-1.535156 9.273438 0 17.671875 14.324219 32 32 32h4.710938c3.761718 9.21875 9.613281 17.433594 17.097656 24h-29.808594c-22.5625-.023438-42.59375 14.421875-49.703125 35.832031l-14.738281 44.167969-4.0625-10.847656-11.847656-31.550782-1.824219-7.304687c-3.375-14.789063-15.003906-26.285156-29.824219-29.496094v-8.800781c0-4.417969-3.582031-8-8-8h-40c-4.417968 0-7.99999975 3.582031-7.99999975 8v24c.01953125 15.355469 10.94140575 28.535156 26.03124975 31.398438l9.046875 27.128906 19.199219 57.601562c7.132812 21.394532 27.152344 35.824219 49.707031 35.824219 22.550781 0 42.570313-14.429687 49.703125-35.824219l6.3125-18.832031v46.703125c0 4.417969 3.582032 8 8 8h144c4.417969 0 8-3.582031 8-8v-46.695312l6.285156 18.863281c7.128907 21.402343 27.152344 35.839843 49.710938 35.839843 22.554688 0 42.578125-14.4375 49.707031-35.839843l19.199219-57.601563 9.046875-27.125c15.109375-2.863281 26.050781-16.0625 26.050781-31.441406v-24c0-4.417969-3.582031-8-8-8zm-40.433594 80h-32l6-16h31.351563zm-223.566406-41.863281 16.445313 9.863281-16.445313 9.863281zm32 102.359375 22.917969 27.503906h-45.839844zm0-67.617188-7.058594-11.277344 7.058594-4.242187 7.054688 4.242187zm15.550782-24.878906 16.449218-9.863281v19.726562zm-15.550782-9.328125-11.121094-6.671875h22.238282zm64-62.671875h-.554687c.351562-2.652344.535156-5.324219.554687-8v-24c8.835938 0 16 7.164062 16 16s-7.164062 16-16 16zm-13.375-91.832031c3.046875 2.765625 7.699219 2.765625 10.75 0 2.898438-2.664063 6.6875-4.148438 10.625-4.167969 6.316406-.035156 12.058594 3.671875 14.625 9.445312 2.566406 5.777344 1.46875 12.523438-2.792968 17.1875-2.757813 3.046876-2.757813 7.6875 0 10.734376 4.859374 5.230468 5.542968 13.09375 1.65625 19.082031-5.851563-5.410157-13.519532-8.425781-21.488282-8.449219h-2.089844c-2.582031-10.019531-7.570312-19.253906-14.535156-26.902344-.105468-.335937-.234375-.660156-.382812-.976562l-10.839844-19.511719c5.113281-1.246094 10.515625.082031 14.472656 3.558594zm-50.625-35.6875 26.398438 47.519531h-52.800782zm-83.832031 58.152343c-5.761719-6.273437-5.558594-15.96875.464844-21.992187 6.019531-6.023437 15.714843-6.230469 21.992187-.472656 3.046875 2.765625 7.699219 2.765625 10.75 0 3.953125-3.476563 9.355469-4.804688 14.472656-3.558594l-10.839843 19.511719c-.167969.34375-.308594.699218-.425781 1.0625-6.910157 7.640625-11.867188 16.84375-14.445313 26.816406h-2.136719c-7.96875.023438-15.636718 3.039062-21.488281 8.449219-3.890625-5.988281-3.207031-13.851563 1.65625-19.082031 2.757813-3.046876 2.757813-7.6875 0-10.734376zm19.832031 69.367188c-8.835937 0-16-7.164062-16-16s7.164063-16 16-16v24c.015625 2.675781.199219 5.347656.550782 8zm16-8v-24c.03125-11.824219 4.429688-23.21875 12.34375-32h71.367188c7.925781 8.773438 12.304687 20.179688 12.289062 32v24c0 26.507812-21.492187 48-48 48-26.511718 0-48-21.492188-48-48zm-148.898437 96h31.351562l6 16h-32zm-27.101563-32v-16h24v8c0 4.417969 3.582032 8 8 8 9.957032-.035156 18.761719 6.46875 21.65625 16h-37.65625c-8.835937 0-16-7.164062-16-16zm122.527344 111.113281c-4.949219 14.863281-18.859375 24.894531-34.527344 24.894531-15.667968 0-29.578125-10.03125-34.527344-24.894531l-15.707031-47.113281h32.6875l10.050781 26.816406c1.1875 3.179688 4.253907 5.261719 7.644532 5.195313 3.394531-.0625 6.375-2.261719 7.441406-5.484375l21.882812-65.640625c4.019532-12.097657 14.085938-21.207031 26.527344-24v45.824219zm37.472656 24.886719v-40h40v-16h-40v-80h16v40c0 2.882812 1.550782 5.542969 4.058594 6.960938 2.511719 1.421874 5.589844 1.378906 8.058594-.105469l15.082031-9.054688 12.800781 20.488281v34.816407l-35.746094 42.894531zm107.742188 0-35.742188-42.894531v-34.816407l12.800782-20.488281 15.09375 9.054688c2.472656 1.476562 5.542968 1.511719 8.046874.09375 2.503907-1.417969 4.054688-4.070313 4.058594-6.949219v-40h16v80h-40v16h40v40zm126.785156-24.886719c-4.949219 14.863281-18.859375 24.894531-34.527344 24.894531-15.667968 0-29.578125-10.03125-34.527344-24.894531l-21.472656-64.410156v-45.824219c12.4375 2.792969 22.507813 11.902344 26.527344 24l21.878906 65.640625c1.070313 3.214844 4.050782 5.410157 7.441406 5.472657h.152344c3.335938.003906 6.320313-2.0625 7.496094-5.183594l10.046875-26.808594h32.6875zm53.472656-111.113281c0 8.835938-7.164062 16-16 16h-37.664062c2.898437-9.53125 11.703125-16.03125 21.664062-16 4.417969 0 8-3.582031 8-8v-8h24zm0 0"/><path d="m40.003906 264c22.089844 0 40-17.910156 40-40s-17.910156-40-40-40c-22.09375 0-39.99999975 17.910156-39.99999975 40 .02734375 22.082031 17.91796875 39.972656 39.99999975 40zm0-64c13.253906 0 24 10.746094 24 24s-10.746094 24-24 24-24-10.746094-24-24 10.746094-24 24-24zm0 0"/><path d="m440.003906 184c-22.09375 0-40 17.910156-40 40s17.90625 40 40 40c22.089844 0 40-17.910156 40-40-.027344-22.082031-17.921875-39.972656-40-40zm0 64c-13.253906 0-24-10.746094-24-24s10.746094-24 24-24 24 10.746094 24 24-10.746094 24-24 24zm0 0"/><path d="m48.003906 96c0 22.089844 17.90625 40 40 40 22.089844 0 40-17.910156 40-40s-17.910156-40-40-40c-22.082031.027344-39.972656 17.917969-40 40zm64 0c0 13.253906-10.746094 24-24 24s-24-10.746094-24-24 10.746094-24 24-24 24 10.746094 24 24zm0 0"/><path d="m392.003906 56c-22.09375 0-40 17.910156-40 40s17.90625 40 40 40c22.089844 0 40-17.910156 40-40-.027344-22.082031-17.921875-39.972656-40-40zm0 64c-13.253906 0-24-10.746094-24-24s10.746094-24 24-24 24 10.746094 24 24-10.746094 24-24 24zm0 0"/></svg>