<svg id="Layer_1" enable-background="new 0 0 64 64" height="512" viewBox="0 0 64 64" width="512" xmlns="http://www.w3.org/2000/svg"><path d="m20 42h10v15h-10z" fill="#9c9c9c"/><path d="m30 57h-14c-1.1 0-2 .9-2 2 0 1.1.9 2 2 2h12c1.1 0 2-.9 2-2z" fill="#7d7d7d"/><path d="m20 50h10v7h-10z" fill="#bababa"/><g fill="#9c9c9c"><path d="m34 42h10v15h-10z"/><path d="m48 24v22.8c0 1.6 1.2 3 2.8 3.2 1.7.1 3.1-1.2 3.2-2.8 0-.1 0-.1 0-.2v-20c0-1.7-1.3-3-3-3z"/><path d="m10 27v19.8c0 1.6 1.2 3 2.8 3.2 1.7.1 3.1-1.2 3.2-2.8 0-.1 0-.1 0-.2v-23h-3c-1.7 0-3 1.3-3 3z"/></g><path d="m16 24v14c0 2.2 1.8 4 4 4h24c2.2 0 4-1.8 4-4v-14z" fill="#bababa"/><path d="m49 2h2v10h-2z" fill="#7d7d7d"/><path d="m21 3h22c2.2 0 4 1.8 4 4v9c0 2.2-1.8 4-4 4h-22c-2.2 0-4-1.8-4-4v-9c0-2.2 1.8-4 4-4z" fill="#bababa"/><path d="m49 9h-2v6h2c1.1 0 2-.9 2-2v-2c0-1.1-.9-2-2-2z" fill="#9c9c9c"/><path d="m38 7h-12c-2.2 0-4 1.8-4 4v9h20v-9c0-2.2-1.8-4-4-4z" fill="#102e42"/><path d="m27 20h10v4h-10z" fill="#9c9c9c"/><circle cx="28" cy="13" fill="#e9e9e9" r="2"/><circle cx="36" cy="13" fill="#e9e9e9" r="2"/><path d="m15 9c-1.1 0-2 .9-2 2v2c0 1.1.9 2 2 2h2v-6z" fill="#9c9c9c"/><circle cx="13" cy="27" fill="#7d7d7d" r="3"/><circle cx="13" cy="39" fill="#7d7d7d" r="3"/><path d="m36 28h8v2h-8z" fill="#e9e9e9"/><path d="m34 57h14c1.1 0 2 .9 2 2 0 1.1-.9 2-2 2h-12c-1.1 0-2-.9-2-2z" fill="#7d7d7d"/><circle cx="51" cy="27" fill="#7d7d7d" r="3"/><circle cx="51" cy="39" fill="#7d7d7d" r="3"/><path d="m16 34h10.2c.5 0 1 .2 1.4.6l1.8 1.8c.4.4.9.6 1.4.6h2.3c.5 0 1-.2 1.4-.6l1.8-1.8c.4-.4.9-.6 1.4-.6h10.3v4c0 2.2-1.8 4-4 4h-24c-2.2 0-4-1.8-4-4z" fill="#102e42"/><path d="m34 50h10v7h-10z" fill="#bababa"/><path d="m28 10c-1.7 0-3 1.3-3 3s1.3 3 3 3 3-1.3 3-3-1.3-3-3-3zm0 4c-.6 0-1-.4-1-1s.4-1 1-1 1 .4 1 1-.4 1-1 1z"/><path d="m36 10c-1.7 0-3 1.3-3 3s1.3 3 3 3 3-1.3 3-3-1.3-3-3-3zm0 4c-.6 0-1-.4-1-1s.4-1 1-1 1 .4 1 1-.4 1-1 1z"/><path d="m36 28h8v2h-8z"/><path d="m13 23c-2.2 0-4 1.8-4 4v20c0 2.2 1.8 4 4 4s4-1.8 4-4v-5c.6.5 1.3.8 2 .9v13.1h-3c-1.7 0-3 1.3-3 3s1.3 3 3 3h12c1.7 0 3-1.3 3-3v-16h2v16c0 1.7 1.3 3 3 3h12c1.7 0 3-1.3 3-3s-1.3-3-3-3h-3v-13.1c.7-.2 1.4-.5 2-.9v5c0 2.2 1.8 4 4 4s4-1.8 4-4v-20c0-2.2-1.8-4-4-4h-13v-2h5c2.8 0 5-2.2 5-5h1c1.7 0 3-1.3 3-3v-2c0-.8-.4-1.7-1-2.2v-6.8h-2v6h-1v-1c0-2.8-2.2-5-5-5h-22c-2.8 0-5 2.2-5 5v1h-1c-1.7 0-3 1.3-3 3v2c0 1.7 1.3 3 3 3h1c0 2.8 2.2 5 5 5h5v2zm2 24c0 1.1-.9 2-2 2s-2-.9-2-2v-4.6c1.2.7 2.8.7 4 0zm-2-6c-1.1 0-2-.9-2-2s.9-2 2-2 2 .9 2 2-.9 2-2 2zm2-5.4c-1.2-.7-2.8-.7-4 0v-5.1c1.2.7 2.8.7 4 0zm-2-6.6c-1.1 0-2-.9-2-2s.9-2 2-2 2 .9 2 2-.9 2-2 2zm38-4c1.1 0 2 .9 2 2s-.9 2-2 2-2-.9-2-2 .9-2 2-2zm-2 5.4c1.2.7 2.8.7 4 0v5.1c-1.2-.7-2.8-.7-4 0zm2 6.6c1.1 0 2 .9 2 2s-.9 2-2 2-2-.9-2-2 .9-2 2-2zm-2 5.4c1.2.7 2.8.7 4 0v4.6c0 1.1-.9 2-2 2s-2-.9-2-2zm-1-32.4h1c.6 0 1 .4 1 1v2c0 .6-.4 1-1 1h-1zm-32 4h-1c-.6 0-1-.4-1-1v-2c0-.6.4-1 1-1h1zm13 45c0 .6-.4 1-1 1h-12c-.6 0-1-.4-1-1s.4-1 1-1h13zm0-3h-8v-5h8zm0-7h-8v-6h8zm19 9c.6 0 1 .4 1 1s-.4 1-1 1h-12c-.6 0-1-.4-1-1v-1zm-5-7v5h-8v-5zm-8-2v-6h8v6zm12-11c0 1.7-1.3 3-3 3h-24c-1.7 0-3-1.3-3-3v-3h9.2c.3 0 .5.1.7.3l1.8 1.8c.6.6 1.3.9 2.1.9h2.3c.8 0 1.6-.3 2.1-.9l1.8-1.8c.2-.2.4-.3.7-.3h9.3zm-26-27v8c-1.7 0-3-1.3-3-3v-9c0-1.7 1.3-3 3-3h22c1.7 0 3 1.3 3 3v9c0 1.7-1.3 3-3 3v-8c0-2.8-2.2-5-5-5h-12c-2.8 0-5 2.2-5 5zm2 8v-8c0-1.7 1.3-3 3-3h12c1.7 0 3 1.3 3 3v8zm13 2v2h-8v-2zm11.6 4c-.4.6-.6 1.3-.6 2v6h-9.2c-.8 0-1.6.3-2.1.9l-1.8 1.8c-.2.2-.4.3-.7.3h-2.3c-.3 0-.5-.1-.7-.3l-1.8-1.8c-.7-.6-1.4-.9-2.2-.9h-9.2v-6c0-.7-.2-1.4-.6-2z"/></svg>