<?xml version="1.0" encoding="iso-8859-1"?>
<!-- Generator: Adobe Illustrator 21.0.0, SVG Export Plug-In . SVG Version: 6.00 Build 0)  -->
<svg xmlns="http://www.w3.org/2000/svg" xmlns:xlink="http://www.w3.org/1999/xlink" version="1.1" id="Capa_1" x="0px" y="0px" viewBox="0 0 512 512" style="enable-background:new 0 0 512 512;" xml:space="preserve" width="512" height="512">
<g>
	<path style="fill:#8CC7EC;" d="M143.727,187.536c-9.944-4.633-21.335,2.626-21.335,13.597v100.968L256,239.848L143.727,187.536z"/>
	<polygon style="fill:#66BAEA;" points="122.392,302.101 256,239.848 223.184,224.558 122.392,271.521  "/>
	<path style="fill:#8CC7EC;" d="M368.273,187.536L122.392,302.101v68.791c0,73.79,59.818,133.608,133.608,133.608h0   c73.79,0,133.608-59.818,133.608-133.608V201.133C389.608,190.163,378.217,182.903,368.273,187.536z"/>
	<path style="fill:#66BAEA;" d="M368.273,187.536l-5.665,2.639v180.716c0,69.233-52.659,126.164-120.108,132.932   c4.44,0.445,8.943,0.676,13.5,0.676h0c73.79,0,133.608-59.818,133.608-133.608V201.133   C389.608,190.163,378.217,182.903,368.273,187.536z"/>
	<path style="fill:#FFC89F;" d="M366.326,188.444v-36.196c0-60.931-49.395-110.326-110.326-110.326h0   c-60.931,0-110.326,49.394-110.326,110.326v36.196L256,239.848L366.326,188.444z"/>
	<path style="fill:#F7B081;" d="M256,41.923L256,41.923c-4.571,0-9.075,0.283-13.5,0.823c54.562,6.658,96.826,53.142,96.826,109.502   v17.491l-116.142,54.819L256,239.848l83.326-38.824l0,0l27-12.58v-31.448v-4.747C366.326,91.317,316.931,41.923,256,41.923z"/>
	<g>
		<path d="M389.608,312.969c4.142,0,7.5-3.358,7.5-7.5V201.133c0-7.728-3.891-14.821-10.408-18.975    c-3.919-2.498-8.4-3.674-12.874-3.515v-26.395c0-64.969-52.857-117.826-117.826-117.826c-2.361,0-4.703,0.078-7.03,0.216    c-1.363-5.115-2.389-13.981,2.375-23.886c1.795-3.733,0.225-8.214-3.508-10.009c-3.732-1.795-8.214-0.225-10.009,3.508    c-5.296,11.011-5.563,21.221-4.436,28.81c-17.956-5.545-23.145-19.011-23.431-19.79c-1.366-3.882-5.613-5.939-9.51-4.601    c-3.918,1.346-6.002,5.612-4.657,9.53c0.276,0.805,5.021,14.038,19.992,23.294c-45.227,16.473-77.61,59.902-77.61,110.755v26.395    c-4.473-0.16-8.955,1.017-12.874,3.515c-6.518,4.153-10.408,11.247-10.408,18.975v169.759C114.892,448.699,178.193,512,256,512    s141.108-63.301,141.108-141.108v-35.423c0-4.142-3.358-7.5-7.5-7.5c-4.142,0-7.5,3.358-7.5,7.5v35.423    C382.108,440.428,325.536,497,256,497s-126.108-56.572-126.108-126.108v-64.011l36.498-17.006c3.755-1.749,5.38-6.211,3.631-9.966    c-1.75-3.754-6.212-5.38-9.966-3.631l-30.163,14.054v-89.199c0-5.395,5.763-9.083,10.667-6.798l97.682,45.514l-50.937,23.733    c-3.755,1.75-5.38,6.211-3.631,9.966c1.749,3.754,6.212,5.38,9.966,3.631l177.801-82.844c4.905-2.284,10.668,1.404,10.668,6.798    v104.335C382.108,309.611,385.466,312.969,389.608,312.969z M153.174,183.664v-31.416c0-52.566,39.651-96.039,90.614-102.097    c0.058,0.001,0.117,0.007,0.175,0.007c0.633,0,1.258-0.08,1.86-0.233c3.349-0.331,6.743-0.503,10.177-0.503    c56.698,0,102.826,46.127,102.826,102.826v31.416L256,231.574L153.174,183.664z"/>
		<path d="M212.35,136.709c-7.661,0-13.894,6.232-13.894,13.894c0,7.661,6.233,13.893,13.894,13.893    c7.661,0,13.894-6.232,13.894-13.893C226.244,142.941,220.011,136.709,212.35,136.709z"/>
		<path d="M299.65,136.709c-7.661,0-13.894,6.232-13.894,13.894c0,7.661,6.233,13.893,13.894,13.893    c7.661,0,13.894-6.232,13.894-13.893C313.543,142.941,307.311,136.709,299.65,136.709z"/>
	</g>
</g>















</svg>
