<svg height="512pt" viewBox="-56 0 512 512.00001" width="512pt" xmlns="http://www.w3.org/2000/svg"><path d="m400.414062 478.484375c0 18.511719-15 33.515625-33.515624 33.515625h-333.382813c-18.511719 0-33.515625-14.992188-33.515625-33.515625 0-67.335937 43.523438-124.730469 104.1875-145.164063 15.367188-5.195312 31.832031-8 48.964844-8h94.109375c17.132812 0 33.601562 2.804688 48.96875 8 60.652343 20.433594 104.183593 77.828126 104.183593 145.164063zm0 0" fill="#0a66ea"/><path d="m400.414062 478.484375c0 18.511719-15 33.515625-33.515624 33.515625h-302.210938c-18.515625 0-33.519531-14.992188-33.519531-33.515625 0-67.335937 43.523437-124.730469 104.1875-145.164063 15.367187-5.195312 31.835937-8 48.964843-8h62.941407c17.132812 0 33.601562 2.804688 48.96875 8 60.652343 20.433594 104.183593 77.828126 104.183593 145.164063zm0 0" fill="#5596fb"/><path d="m89.941406 446.160156v65.839844h-15.582031v-65.839844c0-4.300781 3.488281-7.792968 7.792969-7.792968 4.308594 0 7.789062 3.492187 7.789062 7.792968zm0 0" fill="#0956c6"/><path d="m326.058594 446.160156v65.839844h-15.585938v-65.839844c0-4.300781 3.480469-7.792968 7.792969-7.792968 4.300781 0 7.792969 3.492187 7.792969 7.792968zm0 0" fill="#0956c6"/><path d="m219.28125 448.277344h-37.457031l-19.730469 63.722656h77.574219zm0 0" fill="#d63030"/><path d="m217.175781 449.863281h-33.9375c-6.859375 0-12.46875-5.609375-12.46875-12.46875v-30.027343c0-6.859376 5.609375-12.46875 12.46875-12.46875h33.9375c6.859375 0 12.46875 5.609374 12.46875 12.46875v30.027343c0 6.859375-5.609375 12.46875-12.46875 12.46875zm0 0" fill="#fb5858"/><path d="m202.910156 393.152344-2.703125 1.746094-48.558593 31.449218c-7.179688 4.65625-17.257813 2.371094-21.175782-4.800781l-27.585937-86.875 1.300781-1.351563c15.367188-5.195312 31.832031-8 48.964844-8h9.789062l37.265625 63.25zm0 0" fill="#0956c6"/><path d="m297.527344 334.671875-27.585938 86.875c-3.914062 7.171875-13.992187 9.457031-21.171875 4.800781l-48.5625-31.449218-2.699219-1.746094 2.699219-4.582032 37.269531-63.25h9.785157c17.132812 0 33.601562 2.804688 48.96875 8zm0 0" fill="#0956c6"/><g fill="#e3a76f"><path d="m338.71875 211.007812c0 21.832032-17.699219 39.535157-39.53125 39.535157-21.835938 0-39.535156-17.703125-39.535156-39.535157 0-21.832031 17.699218-39.535156 39.535156-39.535156 21.832031 0 39.53125 17.703125 39.53125 39.535156zm0 0"/><path d="m162.941406 266.328125v58.726563c0 .171874.046875.34375.132813.492187l36.296875 61.605469c.375.636718 1.296875.636718 1.671875 0l36.296875-61.605469c.089844-.148437.132812-.320313.132812-.492187v-58.722657c0-8.71875-7.0625-15.785156-15.78125-15.785156l-42.96875-.003906c-8.714844 0-15.78125 7.066406-15.78125 15.785156zm0 0"/><path d="m140.765625 211.015625c0 21.832031-17.699219 39.53125-39.535156 39.53125-21.832031 0-39.53125-17.699219-39.53125-39.53125 0-21.835937 17.699219-39.535156 39.53125-39.535156 21.835937 0 39.535156 17.699219 39.535156 39.535156zm0 0"/><path d="m302.992188 55.34375v183.835938c0 51.460937-37.828126 94.097656-87.199219 101.609374-5.082031.769532-10.285157 1.175782-15.585938 1.175782-56.769531 0-102.785156-46.027344-102.785156-102.785156v-183.835938c0-18.742188 15.191406-33.929688 33.933594-33.929688h137.703125c18.742187 0 33.933594 15.1875 33.933594 33.929688zm0 0"/></g><path d="m302.992188 55.34375v183.835938c0 51.460937-37.828126 94.097656-87.199219 101.609374-49.371094-7.511718-87.199219-50.148437-87.199219-101.609374v-183.835938c0-18.742188 15.1875-33.929688 33.929688-33.929688h106.535156c18.742187 0 33.933594 15.1875 33.933594 33.929688zm0 0" fill="#f2bb88"/><path d="m266.371094 197.710938c0 6.859374-5.5625 12.421874-12.425782 12.421874-6.859374 0-12.421874-5.5625-12.421874-12.421874 0-6.863282 5.5625-12.425782 12.421874-12.425782 6.863282 0 12.425782 5.5625 12.425782 12.425782zm0 0" fill="#738c96"/><path d="m282.21875 163.773438c-16.722656-10.511719-43.59375-5.316407-46.601562-4.691407-4.214844.878907-6.917969 5.007813-6.039063 9.21875.878906 4.214844 5.007813 6.929688 9.21875 6.039063 6.027344-1.257813 25.425781-3.472656 35.128906 2.628906 1.285157.808594 2.722657 1.195312 4.136719 1.195312 2.59375 0 5.125-1.292968 6.605469-3.648437 2.289062-3.640625 1.195312-8.453125-2.449219-10.742187zm0 0" fill="#738c96"/><path d="m158.894531 197.710938c0 6.859374-5.5625 12.421874-12.425781 12.421874-6.859375 0-12.421875-5.5625-12.421875-12.421874 0-6.863282 5.5625-12.425782 12.421875-12.425782 6.863281 0 12.425781 5.5625 12.425781 12.425782zm0 0" fill="#738c96"/><path d="m164.800781 159.082031c-3.007812-.625-29.878906-5.824219-46.601562 4.691407-3.644531 2.289062-4.742188 7.101562-2.449219 10.746093 1.480469 2.355469 4.011719 3.644531 6.601562 3.644531 1.417969 0 2.851563-.386718 4.140626-1.195312 9.691406-6.09375 28.652343-3.960938 35.136718-2.625 4.210938.875 8.332032-1.832031 9.210938-6.039062.875-4.214844-1.828125-8.34375-6.039063-9.222657zm0 0" fill="#738c96"/><path d="m178.824219 227.171875c0-11.046875-14.273438-20.003906-31.882813-20.003906s-31.882812 8.957031-31.882812 20.003906c0 11.050781 14.273437 20.007813 31.882812 20.007813s31.882813-8.957032 31.882813-20.007813zm0 0" fill="#e6e6e6"/><path d="m285.355469 227.171875c0-11.046875-14.273438-20.003906-31.882813-20.003906-17.605468 0-31.878906 8.957031-31.878906 20.003906 0 11.050781 14.273438 20.007813 31.878906 20.007813 17.609375 0 31.882813-8.957032 31.882813-20.007813zm0 0" fill="#e6e6e6"/><path d="m253.472656 199.375c-12.652344 0-23.742187 3.953125-30.957031 10.230469-5.355469-6.25-13.367187-10.230469-22.308594-10.230469-8.941406 0-16.949219 3.980469-22.304687 10.230469-7.214844-6.277344-18.304688-10.230469-30.960938-10.230469-22.246094 0-39.671875 12.210938-39.671875 27.796875 0 15.589844 17.425781 27.800781 39.671875 27.800781 25.429688 0 39.675782-14.917968 39.675782-26.894531 0-7.234375 6.097656-13.121094 13.589843-13.121094 7.496094 0 13.59375 5.886719 13.59375 13.121094 0 11.972656 14.25 26.894531 39.675781 26.894531 22.246094 0 39.671876-12.210937 39.671876-27.800781 0-15.585937-17.429688-27.796875-39.675782-27.796875zm-106.53125 40.011719c-13.789062 0-24.089844-6.449219-24.089844-12.214844s10.304688-12.214844 24.089844-12.214844c13.789063 0 24.089844 6.449219 24.089844 12.214844s-10.300781 12.214844-24.089844 12.214844zm106.53125 0c-13.785156 0-24.085937-6.449219-24.085937-12.214844s10.300781-12.214844 24.085937-12.214844c13.789063 0 24.089844 6.449219 24.089844 12.214844s-10.300781 12.214844-24.089844 12.214844zm0 0" fill="#9c6a53"/><path d="m200.207031 290.632812c-15.828125 0-28.703125-12.878906-28.703125-28.707031 0-4.304687 3.488282-7.792969 7.789063-7.792969 4.304687 0 7.792969 3.488282 7.792969 7.792969 0 7.234375 5.886718 13.121094 13.121093 13.121094 7.238281 0 13.125-5.886719 13.125-13.121094 0-4.304687 3.488281-7.792969 7.792969-7.792969 4.300781 0 7.789062 3.488282 7.789062 7.792969 0 15.828125-12.875 28.707031-28.707031 28.707031zm0 0" fill="#738c96"/><path d="m324.125 47.085938v82.773437c0 3.210937-2.597656 5.808594-5.808594 5.808594h-32.28125c-17.285156 0-31.300781-14.015625-31.300781-31.304688v-57.277343c0-16.957032 13.472656-30.765626 30.304687-31.285157.332032-.007812.664063-.019531.996094-.019531h6.785156c17.289063 0 31.304688 14.015625 31.304688 31.304688zm0 0" fill="#9bb9c3"/><path d="m305.070312 5.753906v10.546875c0 4.1875-.820312 8.78125-2.421874 13.640625-14.605469 44.613282-93.941407 112.519532-195.59375 111.855469h-19.449219c-10.941407 0-19.8125-6.117187-19.8125-13.660156v-85.3125c0-16.984375 14.347656-31.65625 35.15625-38.585938 8.179687-2.710937 17.339843-4.238281 27.035156-4.238281h166.742187c4.613282 0 8.34375 2.578125 8.34375 5.753906zm0 0" fill="#9bb9c3"/><path d="m305.070312 5.753906v10.546875c0 4.1875-.820312 8.78125-2.421874 13.640625-35.417969 33.082032-93.015626 62.808594-160.425782 62.371094h-19.460937c-10.9375 0-19.8125-6.121094-19.8125-13.671875v-74.402344c8.179687-2.710937 17.339843-4.238281 27.035156-4.238281h166.742187c4.613282 0 8.34375 2.578125 8.34375 5.753906zm0 0" fill="#b4d2d7"/></svg>